<?xml version="1.0" encoding="UTF-8"?>
<svg width="480px" height="357px" viewBox="0 0 480 357" version="1.1" xmlns="http://www.w3.org/2000/svg" xmlns:xlink="http://www.w3.org/1999/xlink">
    <!-- Generator: Sketch 50.2 (55047) - http://www.bohemiancoding.com/sketch -->
    <title>Group 57</title>
    <desc>Created with Sketch.</desc>
    <defs>
        <linearGradient x1="47.8146852%" y1="42.4022179%" x2="50%" y2="100%" id="linearGradient-1">
            <stop stop-color="#000000" stop-opacity="0" offset="0%"></stop>
            <stop stop-color="#000000" offset="100%"></stop>
        </linearGradient>
        <path d="M117.203207,23.8572462 L3.39510995,89.5536281 C-1.15239348,92.1847646 -1.1287032,96.4483131 3.44867058,99.0794496 L182.487434,201.982932 C187.064808,204.614068 194.459265,204.614068 199.005738,201.982932 L312.546032,136.296804 L117.060035,23.9403023 L125.598836,19 L117.203207,23.8572462 Z M111.683372,152.335867 C109.440006,151.046959 109.428676,148.960302 111.656592,147.671393 C113.878328,146.386587 117.50294,146.382485 119.745277,147.671393 C121.987613,148.960302 121.992763,151.051061 119.772057,152.335867 C117.544141,153.624776 113.925708,153.624776 111.683372,152.335867 M100.575722,145.951824 C98.3333852,144.662915 98.3210251,142.576258 100.548941,141.28735 C102.770677,140.002543 106.39529,139.998442 108.637626,141.28735 C110.879963,142.576258 110.886143,144.667017 108.664407,145.951824 C106.43649,147.240732 102.818058,147.240732 100.575722,145.951824 M89.9027362,139.816949 C87.6593699,138.52804 87.6480397,136.441383 89.8759559,135.1535 C92.097692,133.867668 95.7223046,133.863566 97.9646409,135.152475 C100.206977,136.441383 100.212127,138.532142 97.9914212,139.816949 C95.7635051,141.105857 92.1450726,141.105857 89.9027362,139.816949" id="path-2"></path>
        <filter x="-9.6%" y="-13.0%" width="119.2%" height="132.4%" filterUnits="objectBoundingBox" id="filter-3">
            <feOffset dx="0" dy="6" in="SourceAlpha" result="shadowOffsetOuter1"></feOffset>
            <feGaussianBlur stdDeviation="9" in="shadowOffsetOuter1" result="shadowBlurOuter1"></feGaussianBlur>
            <feColorMatrix values="0 0 0 0 0   0 0 0 0 0.784313725   0 0 0 0 0.31372549  0 0 0 0.21 0" type="matrix" in="shadowBlurOuter1"></feColorMatrix>
        </filter>
        <path d="M117.203207,6.85724615 L3.39510995,72.5536281 C-1.15239348,75.1847646 -1.1287032,79.4483131 3.44867058,82.0794496 L182.487434,184.982932 C187.064808,187.614068 194.459265,187.614068 199.005738,184.982932 L312.546032,119.296804 L117.060035,6.94030229 L125.598836,2 L117.203207,6.85724615 Z M111.683372,135.335867 C109.440006,134.046959 109.428676,131.960302 111.656592,130.671393 C113.878328,129.386587 117.50294,129.382485 119.745277,130.671393 C121.987613,131.960302 121.992763,134.051061 119.772057,135.335867 C117.544141,136.624776 113.925708,136.624776 111.683372,135.335867 M100.575722,128.951824 C98.3333852,127.662915 98.3210251,125.576258 100.548941,124.28735 C102.770677,123.002543 106.39529,122.998442 108.637626,124.28735 C110.879963,125.576258 110.886143,127.667017 108.664407,128.951824 C106.43649,130.240732 102.818058,130.240732 100.575722,128.951824 M89.9027362,122.816949 C87.6593699,121.52804 87.6480397,119.441383 89.8759559,118.1535 C92.097692,116.867668 95.7223046,116.863566 97.9646409,118.152475 C100.206977,119.441383 100.212127,121.532142 97.9914212,122.816949 C95.7635051,124.105857 92.1450726,124.105857 89.9027362,122.816949" id="path-4"></path>
        <filter x="-9.8%" y="-13.2%" width="119.5%" height="133.0%" filterUnits="objectBoundingBox" id="filter-5">
            <feMorphology radius="0.5" operator="dilate" in="SourceAlpha" result="shadowSpreadOuter1"></feMorphology>
            <feOffset dx="0" dy="6" in="shadowSpreadOuter1" result="shadowOffsetOuter1"></feOffset>
            <feGaussianBlur stdDeviation="9" in="shadowOffsetOuter1" result="shadowBlurOuter1"></feGaussianBlur>
            <feComposite in="shadowBlurOuter1" in2="SourceAlpha" operator="out" result="shadowBlurOuter1"></feComposite>
            <feColorMatrix values="0 0 0 0 0.0584877621   0 0 0 0 0.27776892   0 0 0 0 0.146200225  0 0 0 0.21 0" type="matrix" in="shadowBlurOuter1"></feColorMatrix>
        </filter>
        <polyline id="path-6" points="85.2271725 0 0 48.9039706 55.5520988 80.5716883 140.779271 31.6677177"></polyline>
        <linearGradient x1="50%" y1="0%" x2="50%" y2="100%" id="linearGradient-8">
            <stop stop-color="#000000" stop-opacity="0" offset="0%"></stop>
            <stop stop-color="#000000" offset="100%"></stop>
        </linearGradient>
        <linearGradient x1="50%" y1="0%" x2="50%" y2="100%" id="linearGradient-9">
            <stop stop-color="#00E88D" offset="0%"></stop>
            <stop stop-color="#00CC54" offset="100%"></stop>
        </linearGradient>
        <polygon id="path-10" points="0 0.0776430206 81.8904969 0.0776430206 81.8904969 47.5547472 0 47.5547472"></polygon>
    </defs>
    <g id="Page-1" stroke="none" stroke-width="1" fill="none" fill-rule="evenodd">
        <g id="Home-Drop" transform="translate(-489.000000, -972.000000)">
            <g id="Group-57" transform="translate(489.000000, 972.000000)">
                <g id="Group" transform="translate(0.000000, 74.000000)">
                    <path d="M408.6734,40.665 C363.2464,14.438 302.9624,-0.004 238.9354,-7.16093819e-15 C174.9084,-0.004 114.7864,14.439 69.6554,40.667 C24.5294,66.89 -0.2076,101.762 0.0014,138.853 C0.2034,175.94 25.3404,210.808 70.7664,237.035 C116.1874,263.258 176.4644,277.704 240.4984,277.704 C304.5254,277.7 364.6474,263.257 409.7724,237.033 C454.9034,210.806 479.6414,175.934 479.4324,138.851 C479.2244,101.76 454.0934,66.888 408.6734,40.665 M71.4714,236.626 C26.2354,210.509 1.2084,175.785 1.0004,138.849 C0.7924,101.913 25.4224,67.193 70.3634,41.076 C115.3054,14.959 175.1724,0.575 238.9384,0.575 C302.7054,0.574 362.7334,14.958 407.9694,41.074 C453.2044,67.191 478.2254,101.911 478.4334,138.847 C478.6414,175.783 454.0044,210.507 409.0634,236.624 C364.1224,262.741 304.2614,277.121 240.4954,277.122 C176.7284,277.122 116.7064,262.742 71.4714,236.626" id="Fill-1" fill="#00CC54" opacity="0.179464286"></path>
                    <path d="M374.1984,60.6998 C299.5614,17.6088 178.5074,17.6088 104.3554,60.7008 C30.2044,103.7928 30.6054,173.9088 105.2424,216.9998 C179.8784,260.0918 300.9204,260.0908 375.0714,216.9988 C449.2234,173.9068 448.8354,103.7908 374.1984,60.6998 M105.9464,216.5908 C31.6984,173.7248 31.3064,103.9738 105.0644,61.1098 C178.8294,18.2428 299.2474,18.2418 373.4944,61.1088 C447.7354,103.9718 448.1274,173.7228 374.3624,216.5898 C300.6044,259.4528 180.1864,259.4538 105.9464,216.5908" id="Fill-4" fill="#00CC54" opacity="0.283761161"></path>
                    <path d="M296.378637,105.926422 C264.93159,87.7709384 213.935484,87.7709384 182.694105,105.926422 C151.45509,124.080724 151.618206,153.621208 183.06407,171.777874 C214.507571,189.930993 265.510769,189.930993 296.749784,171.776692 C327.991163,153.621208 327.822138,124.079542 296.378637,105.926422" id="Stroke-6" stroke="#00CC54"></path>
                    <path d="M325.2464,89.1509 C277.7764,61.7439 200.7984,61.7449 153.6374,89.1519 C106.4814,116.5549 106.7264,161.1469 154.1964,188.5539 C201.6604,215.9569 278.6504,215.9569 325.8054,188.5539 C372.9674,161.1459 372.7104,116.5539 325.2464,89.1509 M154.9004,188.1449 C107.8204,160.9629 107.5774,116.7399 154.3454,89.5609 C201.1204,62.3789 277.4614,62.3779 324.5424,89.5599 C371.6164,116.7379 371.8714,160.9619 325.0974,188.1439 C278.3294,215.3229 201.9744,215.3229 154.9004,188.1449" id="Fill-8" fill="#00CC54" opacity="0.646595982"></path>
                </g>
                <g id="Group-46" transform="translate(51.000000, 15.000000)">
                    <g id="Group-39" transform="translate(27.000000, 78.000000)">
                        <g id="Fill-1-Copy-3" opacity="0.047265625">
                            <use fill="black" fill-opacity="1" filter="url(#filter-3)" xlink:href="#path-2"></use>
                            <use fill="url(#linearGradient-1)" fill-rule="evenodd" xlink:href="#path-2"></use>
                        </g>
                        <g id="Fill-1">
                            <use fill="black" fill-opacity="1" filter="url(#filter-5)" xlink:href="#path-4"></use>
                            <use stroke="#F6F7F9" stroke-width="1" fill="#FFFFFF" fill-rule="evenodd" xlink:href="#path-4"></use>
                        </g>
                        <path d="M143.096253,1.97691481 C138.508436,-0.658971602 131.09711,-0.658971602 126.540265,1.97691481 L117.980952,6.92613567 L314.038865,119.557377 L322.597145,114.608156 C327.155022,111.973297 327.131278,107.702052 322.543462,105.066165 L143.096253,1.97691481 Z M151.564717,17.1687013 C152.691024,16.517434 154.517272,16.517434 155.650806,17.1687013 C156.778145,17.8158597 156.784339,18.8687761 155.658032,19.5200435 C154.537919,20.1672018 152.711671,20.1672018 151.584332,19.5200435 C150.450799,18.8687761 150.445637,17.8158597 151.564717,17.1687013 M142.567683,11.999652 C143.69399,11.3483847 145.520238,11.3483847 146.647577,11.9955431 C147.781111,12.6468104 147.787305,13.6997269 146.660998,14.3509942 C145.540886,14.9991798 143.714637,14.9991798 142.581104,14.3479125 C141.453765,13.6997269 141.447571,12.6468104 142.567683,11.999652 M133.979465,7.0658397 C135.105771,6.41457236 136.93202,6.41457236 138.059359,7.06173076 C139.186698,7.70991639 139.19186,8.76180559 138.065553,9.41307292 C136.946473,10.0612586 135.120225,10.0612586 133.992885,9.41307292 C132.865546,8.76591453 132.859352,7.71299809 133.979465,7.0658397" id="Fill-4" fill="#EBEBEB"></path>
                        <path d="M133.370453,6.58242826 C132.163915,7.17971008 132.170587,8.15147813 133.384909,8.74875995 C134.599231,9.34604177 136.566387,9.34604177 137.772925,8.74875995 C138.986134,8.14768586 138.979462,7.17591782 137.765141,6.578636 C136.550819,5.98135418 134.583662,5.98135418 133.370453,6.58242826 Z" id="Fill-7" fill="#00E587"></path>
                        <path d="M150.962435,16.8000451 C149.757033,17.3966813 149.763699,18.367399 150.983543,18.9678234 C152.196722,19.5644596 154.162027,19.5644596 155.367429,18.9678234 C156.579497,18.367399 156.572831,17.3966813 155.359652,16.8000451 C154.139808,16.1996207 152.174503,16.1996207 150.962435,16.8000451 Z" id="Fill-10" fill="#00E587"></path>
                        <path d="M142.683891,11.6912298 C141.478489,12.2878656 141.485154,13.2585825 142.698334,13.8552183 C143.918179,14.4556423 145.883485,14.4556423 147.088887,13.8590065 C148.300956,13.2585825 148.29429,12.2878656 147.074445,11.6874416 C145.861265,11.0908058 143.895959,11.0908058 142.683891,11.6912298 Z" id="Fill-13" fill="#00E587"></path>
                        <g id="Group" transform="translate(89.003175, 51.092896)">
                            <mask id="mask-7" fill="white">
                                <use xlink:href="#path-6"></use>
                            </mask>
                            <g id="Clip-2"></g>
                            <path d="M113.90165,16.3457132 C104.944435,11.2394176 95.4030783,8.71076576 85.27758,8.75641733 C75.1532095,8.8020689 65.4776582,11.4231373 56.2633307,16.6207361 L74.8577556,27.220809 C78.3524564,25.3067832 81.5595972,24.2467759 84.4701564,24.0419005 C87.3728218,23.8359117 90.1108449,24.4627858 92.6718213,25.9225227 C94.9114069,27.1985399 96.0514981,28.417771 96.0988609,29.5813294 C96.1439684,30.7437743 95.0963475,31.9418498 92.9514876,33.1733289 C90.963376,34.3135048 88.7361949,35.019434 86.2676889,35.29223 C83.7957998,35.5661394 80.4465705,35.6808251 76.2245118,35.6329466 C70.3244553,35.5427569 65.1596506,35.8066453 60.7413743,36.4223848 C56.3185874,37.034784 51.8044578,38.6682196 47.1967302,41.3115571 L65.1934812,51.5709133 C67.9754841,49.9753351 71.1341343,49.0289 74.6829642,48.7304946 C78.2272832,48.4354296 82.9511625,48.3808704 88.851219,48.5623632 C95.7898748,48.7895076 101.589567,48.6636874 106.250296,48.1860161 C110.912153,47.7050044 115.348472,46.2597423 119.560381,43.8424358 C126.314097,39.9676193 129.181804,35.6229255 128.153353,30.8128084 C127.132797,26.0026913 122.380726,21.1792128 113.90165,16.3457132 M47.9635571,50.6144571 C44.681989,48.743856 40.953857,47.797421 36.769012,47.7762654 C32.5807838,47.7528829 28.8582902,48.674822 25.5992759,50.5454231 C22.2635788,52.4594488 20.5991134,54.6273419 20.6171564,57.0446484 C20.6306886,59.4586146 22.273728,61.6020117 25.5552961,63.4726128 C28.9158023,65.387752 32.7093401,66.3442081 36.9313988,66.3442081 C41.1534576,66.3442081 44.9391016,65.3855251 48.2747986,63.4726128 C51.533813,61.6020117 53.135128,59.4697491 53.0832544,57.0769385 C53.0325085,54.6830145 51.3240633,52.5295964 47.9635571,50.6144571" id="Fill-1" fill="#E5E5E5" mask="url(#mask-7)"></path>
                        </g>
                    </g>
                    <path d="M306.728643,85.1442055 L277.694988,68.4420566 C272.03484,65.1859811 262.798398,65.1859811 257.175742,68.4420566 L237.198323,80.0094395 C231.574458,83.265515 231.604694,88.5955009 237.264842,91.8515764 L266.299707,108.553725 C271.967111,111.814621 281.203554,111.814621 286.826209,108.558546 L306.803628,96.9911627 C312.426283,93.7350872 312.396048,88.4051013 306.728643,85.1442055" id="Path" fill="url(#linearGradient-8)" opacity="0.0573660714"></path>
                    <g id="Group-31" transform="translate(232.000000, 54.000000)">
                        <g id="Group-7">
                            <g id="Group-3" fill="#FFFFFF">
                                <path d="M75.6023119,19.7538001 L46.1287363,2.82846106 C40.3742313,-0.476009897 31.0064323,-0.471125239 25.2985821,2.82846106 L5.01846372,14.5504185 C-0.690614274,17.8500048 -0.667286858,23.2475516 5.08599045,26.5508014 L34.5607938,43.4761404 C40.3140711,46.7806114 49.6904644,46.7806114 55.3983146,43.4810251 L75.678433,31.7590677 C81.3862832,28.4594814 81.3555892,23.0582711 75.6023119,19.7538001 M29.695186,24.4284176 C28.8836375,23.9619328 28.7854168,23.1596277 29.6841362,22.6394117 L39.419035,17.012286 C40.3152989,16.4945123 41.703894,16.5470223 42.5142147,17.012286 C42.7732718,17.1600469 42.9733965,17.3517697 43.0789837,17.5801274 L46.7008719,25.2588094 C47.1354985,26.2003272 45.6560492,27.0551423 44.0219024,26.8072459 L30.672482,24.750805 C30.2820547,24.6897468 29.9530153,24.5761785 29.695186,24.4284176" id="Fill-1"></path>
                            </g>
                            <g id="Group-6" transform="translate(28.238450, 15.875138)" fill="#00C850">
                                <path d="M14.2758872,1.13665986 C13.4655664,0.671396206 12.0769713,0.618886136 11.1807075,1.13788102 L1.44580866,6.76378557 C0.547089281,7.28400162 0.645309978,8.08630665 1.45685848,8.55279147 C1.71468781,8.70055236 2.04372715,8.81534182 2.43415442,8.87517888 L15.7835749,10.932841 C17.4177217,11.1795162 18.8971709,10.3247011 18.4625444,9.38440445 L14.8406562,1.70450132 C14.7350689,1.47614357 14.5349443,1.28564192 14.2758872,1.13665986" id="Fill-4"></path>
                            </g>
                        </g>
                    </g>
                    <path d="M315.728643,316.144206 L286.694988,299.442057 C281.03484,296.185981 271.798398,296.185981 266.175742,299.442057 L246.198323,311.00944 C240.574458,314.265515 240.604694,319.595501 246.264842,322.851576 L275.299707,339.553725 C280.967111,342.814621 290.203554,342.814621 295.826209,339.558546 L315.803628,327.991163 C321.426283,324.735087 321.396048,319.405101 315.728643,316.144206" id="Path" fill="url(#linearGradient-8)" opacity="0.0573660714"></path>
                    <g id="Group-28" transform="translate(242.000000, 290.000000)">
                        <path d="M75.1608099,19.4219033 L45.6872343,2.47780004 C39.9413235,-0.82544434 30.5649303,-0.82544434 24.85708,2.47780004 L4.57696169,14.212753 C-1.13211631,17.5159973 -1.10142234,22.9231957 4.64448842,26.2264401 L34.1192918,43.1705434 C39.8725691,46.4786778 49.2489623,46.4786778 54.9568126,43.1754334 L75.2369309,31.4404805 C80.9447812,28.1372361 80.9140872,22.7300378 75.1608099,19.4219033 M23.1001573,26.2582255 C22.8865273,26.1359737 22.7784846,25.952596 22.8631999,25.7582156 L24.3058164,22.6175661 C24.3451047,22.5319898 24.42982,22.4635288 24.5243574,22.409738 C23.1811894,19.8950179 24.2198733,17.0612206 27.6465478,15.0782959 C32.5919599,12.2163806 40.6313239,12.2114906 45.6172521,15.0782959 L53.3226657,19.5074796 C58.2999995,22.3693949 58.3270102,27.0112968 53.3815981,29.8719896 C48.4361861,32.7339048 40.3882277,32.7339048 35.4108939,29.8732121 L28.2150001,25.7362102 L23.9681827,26.3939251 C23.6330046,26.4428258 23.3137874,26.3816999 23.1001573,26.2582255 M47.266132,24.8572196 C46.5454376,24.4427859 45.3729281,24.4427859 44.6571448,24.8572196 C43.9401337,25.2716533 43.9438169,25.9477059 44.6657391,26.3621396 C45.3864334,26.7765733 46.558943,26.7765733 47.2747263,26.3621396 C47.9917374,25.9477059 47.9880541,25.2716533 47.266132,24.8572196 M41.8112001,21.7202377 C41.0892779,21.305804 39.9179961,21.305804 39.200985,21.7202377 C38.4852017,22.1346714 38.488885,22.810724 39.2095794,23.2251577 C39.938868,23.6444815 41.1101498,23.6444815 41.8271609,23.2300478 C42.544172,22.8156141 42.539261,22.1395615 41.8112001,21.7202377 M36.3550404,18.5844783 C35.634346,18.1688221 34.4618364,18.1688221 33.7448253,18.5832558 C33.029042,18.998912 33.0327253,19.6749646 33.7534197,20.0893983 C34.4827083,20.5087221 35.6552179,20.5087221 36.3710012,20.0930659 C37.0880123,19.6786322 37.084329,19.0025796 36.3550404,18.5844783" id="Fill-1" fill="#FFFFFF"></path>
                        <path d="M53.3229113,19.5076019 L45.6174976,15.0771956 C40.6315695,12.2116128 32.5922055,12.2165029 27.6467934,15.0771956 C24.2201188,17.0613428 23.181435,19.8951402 24.5233752,22.4098603 C24.4300656,22.4636511 24.3441225,22.5321121 24.3060619,22.6176884 L22.8622177,25.7583378 C22.7775023,25.9514957 22.8867729,26.136096 23.1004029,26.2583478 C23.3140329,26.3805996 23.6320224,26.442948 23.9684283,26.3940473 L28.2152457,25.73511 L35.4111395,29.8721118 C40.3884733,32.7340271 48.4364316,32.7340271 53.3818437,29.8721118 C58.3272558,27.011419 58.3002451,22.3695172 53.3229113,19.5076019 M44.6647569,26.3622618 C43.9440625,25.9478281 43.9403792,25.2717755 44.6573903,24.8573418 C45.3731736,24.4416856 46.5456832,24.4416856 47.2663776,24.8573418 C47.9882997,25.2717755 47.991983,25.9478281 47.2749719,26.3622618 C46.5591885,26.7766955 45.386679,26.7766955 44.6647569,26.3622618 M39.2098249,23.2252799 C38.4879028,22.8108463 38.4842195,22.1347936 39.2012306,21.72036 C39.9170139,21.3059263 41.0895235,21.3059263 41.8102179,21.72036 C42.5395065,22.1396837 42.5431898,22.8157363 41.8274065,23.23017 C41.1103954,23.6446037 39.9391136,23.6446037 39.2098249,23.2252799 M33.7536652,20.0895206 C33.0329708,19.6738644 33.0292876,18.9990343 33.7450709,18.5833781 C34.462082,18.1689444 35.6333638,18.1689444 36.3552859,18.5833781 C37.0845746,19.0027018 37.0882579,19.6787544 36.3712468,20.0931881 C35.6542357,20.5076218 34.4829539,20.5076218 33.7536652,20.0895206" id="Fill-3" fill="#00CC54"></path>
                    </g>
                    <g id="Group-25" transform="translate(70.000000, 0.000000)" fill="url(#linearGradient-8)" opacity="0.0573660714">
                        <path d="M45.372209,3.45812425 C39.6262982,0.153414366 30.249905,0.153414366 24.5420547,3.45812425 L4.26193637,15.1982835 C-1.44714162,18.5029933 -1.41644766,23.9125906 4.3294631,27.2173005 L33.8042664,44.1689211 C39.5575437,47.4785233 48.933937,47.4785233 54.6417872,44.1738134 L74.9219056,32.4336542 C80.6297558,29.1289443 80.5990619,23.719347 74.8457846,20.4097449 L45.372209,3.45812425 Z" id="Path"></path>
                    </g>
                    <g id="Group-23" transform="translate(18.000000, 229.000000)">
                        <g id="Group-10">
                            <path d="M74.8457846,26.2863085 L45.372209,9.25599562 C39.6262982,5.93594472 30.249905,5.93594472 24.5420547,9.25599562 L4.26193637,21.0506546 C-1.44714162,24.3707055 -1.41644766,29.805415 4.3294631,33.1254659 L33.8042664,50.1557788 C39.5575437,53.4807447 48.933937,53.4807447 54.6417872,50.1606938 L74.9219056,38.3660348 C80.6297558,35.0459839 80.5990619,29.6112744 74.8457846,26.2863085" id="Fill-8-Copy" fill="url(#linearGradient-8)" opacity="0.0772879464"></path>
                            <path d="M74.8457846,19.5203511 L45.372209,2.49003817 C39.6262982,-0.830012724 30.249905,-0.830012724 24.5420547,2.49003817 L4.26193637,14.2846972 C-1.44714162,17.604748 -1.41644766,23.0394576 4.3294631,26.3595085 L33.8042664,43.3898214 C39.5575437,46.7147872 48.933937,46.7147872 54.6417872,43.3947363 L74.9219056,31.6000773 C80.6297558,28.2800264 80.5990619,22.8453169 74.8457846,19.5203511 M37.3524891,24.2313337 C37.1720086,24.126891 37.0074889,23.995416 36.8662967,23.8319938 C36.732471,23.6734865 36.6146061,23.4793459 36.5188409,23.2618592 C36.4083427,23.0443725 36.3371327,22.8490031 36.2818835,22.6904959 C36.2254066,22.5319886 36.1615632,22.3243319 36.0977197,22.069983 C36.0584314,21.9397368 36.0265097,21.8303791 35.994588,21.7492823 L35.9467054,21.577259 C35.8509402,21.2602445 35.7318476,20.8658195 35.5894276,20.422245 C35.4212247,19.89143 35.2309221,19.2758321 35.00747,18.5779088 C34.594943,17.2742174 34.3481635,16.4902824 34.2683592,16.2273324 C34.101384,15.7616406 34.0989285,15.2357406 34.2438041,14.6606911 C34.381313,14.0807266 34.6993025,13.6506682 35.1818117,13.3692871 C35.7895523,13.0166392 36.4451754,12.8163549 37.1781474,12.7721203 C37.9049805,12.721742 38.5618314,12.8753343 39.1585222,13.2206098 L56.3569662,23.1574164 C56.866486,23.4523136 57.1255431,23.8098765 57.1279986,24.2350199 C57.1378207,24.6564772 56.8898134,25.018955 56.3766103,25.3175384 C55.7688697,25.671415 54.989243,25.9073328 54.0524631,26.0068606 C53.1070889,26.1100746 52.1617147,26.1149895 51.2003796,26.0105468 C48.0020681,25.6800162 45.5944333,25.4268961 43.9529199,25.2548727 C43.0542005,25.1590311 42.3887553,25.0914505 41.9516732,25.0459872 L41.6545556,25.018955 C41.5133634,25.0005239 41.3341106,24.9870078 41.1069752,24.9648905 C40.6698931,24.9280283 40.3101598,24.8923949 40.0363696,24.8604477 C39.7552129,24.8248143 39.418807,24.7830372 39.0504794,24.7252865 C38.676013,24.6699933 38.3396071,24.6024127 38.0572226,24.521316 C37.7834324,24.4439054 37.556297,24.3492926 37.3758165,24.2448498 L37.3524891,24.2313337 M43.993436,32.5191736 L43.9602865,26.4774673 C45.8436683,26.6728367 48.1260718,26.9173557 50.7853971,27.2159391 C51.5269634,27.2933496 52.2537966,27.324068 52.9658966,27.3019507 L43.993436,32.5191736 M23.0564667,20.422245 L32.0276996,15.2037934 C31.9835003,15.6203357 32.0485715,16.0467079 32.1909915,16.4718513 C32.7312053,18.0753548 33.1609209,19.3888761 33.4789104,20.422245 L23.0564667,20.422245 M22.8195093,22.7224431 C22.3492777,22.4508919 22.0975871,22.1252763 22.0558433,21.7492823 L33.8852985,21.7492823 C33.9245868,21.8979597 33.9565085,22.0343496 33.9970246,22.1572235 C34.1161171,22.6044842 34.2204766,22.9632758 34.3150141,23.224997 C34.4107792,23.487947 34.5924875,23.8098765 34.8675055,24.1858704 C35.1277903,24.5618643 35.465424,24.8653627 35.8656733,25.0963655 L35.8890007,25.1098816 C36.2806557,25.3359695 36.8049087,25.5313388 37.4617596,25.6849311 C38.1038774,25.8385234 38.6588244,25.9429662 39.1204616,26.0019456 C39.5735046,26.0560101 40.1910672,26.1149895 40.9571887,26.1788839 C41.184324,26.2010012 41.4188259,26.2280335 41.6606944,26.2513795 L41.7073492,33.104053 C41.0517261,33.0770208 40.4881848,32.9320297 40.0179533,32.6604785 L22.8195093,22.7224431" id="Fill-8" fill="url(#linearGradient-9)"></path>
                        </g>
                        <g id="Group-13" transform="translate(22.535211, 21.425532)" fill="#F6F7F9">
                            <path d="M11.8354163,0.444718297 L0.00596109993,0.444718297 C0.047704896,0.820712218 0.299395431,1.14632787 0.769627017,1.41910777 L17.968071,11.3559144 C18.4383026,11.6274656 19.0018438,11.7724567 19.657467,11.799489 L19.6120399,4.94681544 C19.3689437,4.92469815 19.1344418,4.89643717 18.9073064,4.87431988 C18.1424128,4.81042549 17.5248501,4.75267479 17.0705794,4.69738157 C16.6101699,4.63840213 16.0539952,4.53518811 15.4131051,4.38036708 C14.7550265,4.2267748 14.2307735,4.03140541 13.8391185,3.80531756 L13.8157911,3.79180144 C13.4155417,3.56079864 13.0779081,3.25730027 12.8176232,2.88130635 C12.5426053,2.50531243 12.360897,2.183383 12.2651318,1.92166174 C12.1705944,1.65871174 12.0662349,1.30114889 11.9471423,0.852659414 C11.907854,0.729785583 11.8759323,0.59462437 11.8354163,0.444718297" id="Fill-11"></path>
                        </g>
                        <g id="Group-16" transform="translate(23.535211, 14.659574)" fill="#F6F7F9">
                            <path d="M8.97818566,0.665678294 L0.00695277548,5.88412987 L10.4293965,5.88412987 C10.111407,4.85076096 9.6816914,3.53723971 9.14147757,1.93373622 C8.99905756,1.50859277 8.93398635,1.08222058 8.97818566,0.665678294" id="Fill-14"></path>
                        </g>
                        <g id="Group-19" transform="translate(43.943662, 25.936170)" fill="#F6F7F9">
                            <path d="M7.32681864,1.40098246 C4.66872103,1.10239905 2.38508983,0.85788013 0.501707973,0.66251074 L0.536085217,6.70544572 L9.5073181,1.48699414 C8.79644581,1.50911143 8.06961266,1.47839297 7.32681864,1.40098246 Z" id="Fill-17"></path>
                        </g>
                        <g id="Group-22" transform="translate(33.802817, 12.404255)" fill="#F6F7F9">
                            <path d="M23.0392327,10.8744976 L5.84078873,0.936462209 C5.24532576,0.592415484 4.58724709,0.438823196 3.86164169,0.489201466 C3.12744199,0.533436045 2.47181883,0.733720389 1.86407827,1.08636828 C1.3815691,1.36774935 1.0635796,1.79780776 0.92607062,2.37777224 C0.781195092,2.95282177 0.78365061,3.47749302 0.950625794,3.94441358 C1.03043011,4.20736357 1.27720961,4.99129861 1.6909643,6.29498995 C1.91318862,6.99291331 2.10471898,7.6085112 2.27169416,8.13932615 C2.41411418,8.58290067 2.53443453,8.97609693 2.63019971,9.29434015 L2.6780823,9.46636351 C2.70877627,9.54746024 2.74069799,9.65558921 2.78121403,9.78706421 C2.84505748,10.041413 2.90890094,10.2490698 2.96415008,10.4075771 C3.01939922,10.5660843 3.09060922,10.7614537 3.20110751,10.9789404 C3.29687269,11.196427 3.41473752,11.3905677 3.54856322,11.5490749 C3.68975547,11.7124971 3.8555029,11.8439721 4.03598343,11.9484149 L4.05931085,11.961931 C4.23979138,12.065145 4.46569898,12.1609866 4.74071693,12.2383971 C5.02187367,12.3194939 5.35827956,12.3870745 5.73397372,12.4411389 C6.10107358,12.5001184 6.43747947,12.5418955 6.71863621,12.5775289 C6.9924264,12.6094761 7.3521597,12.6451095 7.79046956,12.6819717 C8.01637716,12.7040889 8.1968577,12.7176051 8.33682219,12.7360361 L8.6339398,12.7630684 C9.07224965,12.8085317 9.73646712,12.8761123 10.6351865,12.9719539 C12.2779276,13.1439773 14.6855625,13.3970973 17.8826462,13.727628 C18.8439812,13.8320707 19.7893554,13.8271558 20.7347296,13.7239417 C21.6715095,13.6244139 22.4511363,13.3884962 23.0588769,13.0346195 C23.5733078,12.7360361 23.821315,12.3735583 23.8102652,11.9521011 C23.8090374,11.5269576 23.5487526,11.1693948 23.0392327,10.8744976" id="Fill-20"></path>
                        </g>
                    </g>
                    <g id="Group" transform="translate(232.000000, 163.000000)">
                        <path d="M144.667865,64.679788 L61.8115476,17.6916866 C56.5159472,14.6897307 47.8884233,14.6897307 42.6346273,17.6883573 L3.92714386,39.7829749 C-1.33343125,42.7860406 -1.30518504,47.6945993 3.98928553,50.697665 L86.8456032,97.6857664 C92.1332947,100.684393 100.761948,100.684393 106.022524,97.6813273 L144.730007,75.5855998 C149.983803,72.5869732 149.955557,67.6784146 144.667865,64.679788" id="Fill-1-Copy-6" fill="url(#linearGradient-8)" opacity="0.0169642857"></path>
                        <path d="M151.977921,52.247235 L64.4151874,2.2556279 C59.1468341,-0.752172814 50.5497371,-0.752172814 45.3151553,2.2556279 L3.90679915,26.0519846 C-1.32665691,29.0597853 -1.298514,33.9833614 3.96983928,36.9911621 L91.5325724,86.9827692 C96.8009257,89.9905699 105.398023,89.9905699 110.631479,86.9827692 L152.039835,63.1864125 C157.274417,60.1786117 157.246274,55.2550357 151.977921,52.247235 M33.7799382,34.5666655 C26.4920495,30.4056147 26.4458952,23.6553174 33.6932581,19.4898139 C40.9338667,15.3298764 52.7257471,15.3298764 60.0136358,19.4898139 C67.3094045,23.6553174 67.3397989,30.4056147 60.0991903,34.5655523 C52.8518274,38.7310557 41.0745812,38.7310557 33.7799382,34.5666655 M71.4385327,38.0130574 C69.6993007,37.0201047 69.6824149,35.3904155 71.4103898,34.3974628 L73.831806,33.0071063 C75.5597808,32.0141536 78.4112208,32.0141536 80.1504528,33.0071063 L125.13521,58.6891827 C126.874442,59.6832486 126.876694,61.3118246 125.148719,62.3047773 L122.728428,63.6962469 C121.000454,64.6891996 118.163648,64.6891996 116.424416,63.6962469 L71.4385327,38.0130574 M55.5940728,47.1188346 C53.8537151,46.1258818 53.837955,44.4961926 55.5659299,43.5032399 L57.9862204,42.1117703 C59.7141952,41.1188176 62.5656351,41.1188176 64.3048672,42.1117703 L109.29075,67.7949598 C111.029982,68.7879125 111.032234,70.4176017 109.304259,71.4105545 L106.882843,72.8009109 C105.154868,73.7938636 102.318062,73.7938636 100.57883,72.8009109 L55.5940728,47.1188346" id="Fill-1" stroke="#F6F7F9" fill="#FFFFFF"></path>
                        <path d="M80.2251232,32.9315277 C78.4858912,31.938575 75.6344513,31.938575 73.9064764,32.9315277 L71.4861859,34.3229973 C69.7582111,35.3159501 69.7750968,36.9445261 71.5143289,37.9374788 L116.499086,63.6206683 C118.238318,64.613621 121.07625,64.613621 122.804225,63.6206683 L125.224515,62.2303119 C126.95249,61.236246 126.950238,59.60767 125.211006,58.6147172 L80.2251232,32.9315277 Z" id="Fill-3" stroke="#FFFFFF" fill="#F6F7F9"></path>
                        <path d="M64.3045294,42.1119929 C62.5652974,41.1190402 59.7138575,41.1190402 57.9858827,42.1119929 L55.5655922,43.5034625 C53.8376173,44.4964153 53.8545031,46.1249913 55.5937351,47.117944 L100.578493,72.8011335 C102.317725,73.7940862 105.155656,73.7940862 106.883631,72.8011335 L109.303921,71.4107771 C111.031896,70.4167112 111.029645,68.7881352 109.290413,67.7951825 L64.3045294,42.1119929 Z" id="Fill-5" stroke="#FFFFFF" fill="#F6F7F9"></path>
                        <path d="M60.013861,19.4902592 C52.7259723,15.3292085 40.9340918,15.3292085 33.6934832,19.4902592 C26.4461203,23.6557626 26.491149,30.4049468 33.7790377,34.5659976 C41.0748064,38.731501 52.8520525,38.731501 60.0994154,34.5659976 C67.340024,30.4049468 67.308504,23.6546495 60.013861,19.4902592 M46.3172682,21.4316376 C46.2711138,20.7926748 46.5705544,20.2327474 47.2572414,19.8386832 C49.1349366,18.7600159 53.1863903,19.3299619 56.3046251,21.111043 C59.4239855,22.8921241 60.4258732,25.2064164 58.5481781,26.2850836 C58.4693779,26.3307238 58.3770692,26.3752508 58.2915147,26.4164383 C58.6618754,27.2746968 57.8592396,28.5092086 56.1233847,29.5066141 C55.0100511,30.1466901 53.7256085,30.5674705 52.5514862,30.7311073 C52.7642466,31.2142256 52.5413548,31.7463235 51.8828106,32.1248033 C51.0407746,32.6090347 49.7428235,32.6847307 48.7533187,32.3452121 C47.080504,32.9830617 45.3367691,33.5029148 44.0692123,33.6264773 C41.2402867,33.9014317 37.5175422,32.9697036 35.6128299,31.882131 C33.3917912,30.6142239 31.664942,29.3674671 32.4079149,27.6153286 C32.4979723,27.402712 32.8255558,27.1500211 33.305111,26.8739536 C35.1850576,25.79306 39.3929859,24.3581765 40.7303371,23.5900853 C42.4706948,22.5893403 44.4001729,21.8468521 46.3172682,21.4316376" id="Fill-7" fill="#00C850"></path>
                        <path d="M46.3172682,21.4313037 C44.4001729,21.8465182 42.4706948,22.5901195 40.7303371,23.5897513 C39.3929859,24.3578425 35.1850576,25.7938392 33.305111,26.8747328 C32.8255558,27.1496872 32.4979723,27.4023781 32.4079149,27.6149946 C31.664942,29.3671331 33.3917912,30.6150031 35.6128299,31.8829102 C37.5175422,32.9704829 41.2402867,33.9010977 44.0692123,33.6261433 C45.3367691,33.503694 47.080504,32.983841 48.7533187,32.3459913 C48.5777069,32.2847666 48.4111009,32.211297 48.2580034,32.1244693 C47.4823848,31.6814254 47.3101501,31.0213122 47.7367967,30.4803088 C47.5161562,30.5014592 47.2808815,30.462498 47.1097726,30.3645386 C46.8362235,30.208694 46.8272177,29.949324 47.1063954,29.7901399 L49.1765881,28.6001551 C49.5030459,27.9678713 50.1931101,27.2988527 51.222015,26.7077564 C51.5507242,26.5196297 51.892942,26.3548797 52.2430399,26.2034878 C51.3030666,25.9040436 50.3698476,25.5099794 49.5075488,25.0179557 C47.5274134,23.8869692 46.3983198,22.5400266 46.3172682,21.4313037" id="Fill-9" fill="#F6F7F9"></path>
                        <path d="M56.3051879,21.111043 C53.1858275,19.3299619 49.1354994,18.7600159 47.2566786,19.8386832 C46.5711172,20.2327474 46.2705509,20.7926748 46.3167053,21.4316376 C46.3977569,22.5403606 47.5279763,23.8873032 49.5069859,25.0171765 C50.3692847,25.5103133 51.3036295,25.9043775 52.2436027,26.2038218 C51.8935049,26.3552137 51.5501614,26.5188505 51.2214521,26.7080904 C50.193673,27.2991867 49.502483,27.9682053 49.177151,28.5993759 L47.1058326,29.7893607 C46.8277806,29.949658 46.8356606,30.2079147 47.1092097,30.3637593 C47.2803186,30.4617188 47.5167191,30.5017931 47.7373595,30.4806428 C47.8600626,30.3247982 48.0322973,30.1800854 48.2540634,30.0520701 C49.2536997,29.4776715 50.87248,29.4776715 51.8709906,30.0487306 C52.2143341,30.2446495 52.4417288,30.481756 52.5509233,30.7311073 C53.7250457,30.5674705 55.0094882,30.1466901 56.1239476,29.5066141 C57.8586767,28.5092086 58.6613126,27.2746968 58.2909518,26.4164383 C58.3765063,26.3752508 58.4699408,26.3307238 58.5476152,26.2850836 C60.4264361,25.2064164 59.4245484,22.8921241 56.3051879,21.111043" id="Fill-11" fill="#3C3C3C"></path>
                        <path d="M51.8713283,30.0482853 C50.8728177,29.4783394 49.2529117,29.4783394 48.2532754,30.0527381 C48.0315093,30.1796401 47.8604004,30.3254661 47.7376973,30.4801975 C47.3110507,31.0212009 47.4821596,31.6813141 48.2577783,32.124358 C48.4108757,32.2111857 48.5774818,32.2846553 48.7542193,32.34588 C49.7425984,32.6842854 51.0405495,32.6085894 51.8837112,32.124358 C52.5422553,31.7458783 52.7640215,31.2148935 52.5512611,30.7317752 C52.4409408,30.4813107 52.2146718,30.2442043 51.8713283,30.0482853" id="Fill-13" fill="#F6F7F9"></path>
                    </g>
                    <g id="Group" transform="translate(0.000000, 62.000000)">
                        <g id="Group-3" transform="translate(0.000000, 0.018876)">
                            <path d="M144.36336,66.3863744 L61.681443,19.0430984 C56.3969891,16.0184512 47.7876248,16.0184512 42.5448873,19.0397439 L3.91887777,41.3013708 C-1.33062457,44.3271362 -1.3024378,49.2727977 3.98088864,52.298563 L86.6628053,99.6418391 C91.939367,102.663132 100.549859,102.663132 105.799361,99.6373664 L144.425371,77.3746213 C149.668108,74.3533287 149.639921,69.4076671 144.36336,66.3863744" id="Fill-1-Copy-5" fill="url(#linearGradient-8)" opacity="0.0169642857"></path>
                            <path d="M144.36336,49.6121809 L61.681443,2.26890487 C56.3969891,-0.755742307 47.7876248,-0.755742307 42.5448873,2.26555037 L3.91887777,24.5271773 C-1.33062457,27.5529426 -1.3024378,32.4986041 3.98088864,35.5243695 L86.6628053,82.8676455 C91.939367,85.8889382 100.549859,85.8889382 105.799361,82.8631728 L144.425371,60.6004278 C149.668108,57.5791351 149.639921,52.6334736 144.36336,49.6121809 M32.1924538,32.6640932 C25.3532182,28.7482653 25.3171391,22.4004198 32.1112759,18.4845919 C38.9054128,14.568764 49.9557505,14.568764 56.7938586,18.4845919 C63.6319668,22.4004198 63.6680459,28.7482653 56.873909,32.6640932 C50.0797722,36.579921 39.030562,36.579921 32.1924538,32.6640932 M68.0809651,36.328333 C66.3322585,35.3264536 66.3221113,33.6939268 68.0606707,32.6920474 L70.069823,31.5347425 C71.8004901,30.5373357 74.6496079,30.532863 76.3983145,31.5347425 L119.035864,55.9477265 C120.784571,56.949606 120.786825,58.5854872 119.056158,59.582894 L117.045879,60.7413171 C115.308447,61.7431965 112.467221,61.7431965 110.717387,60.7413171 L68.0809651,36.328333 M52.9548218,45.0455786 C51.2061152,44.0436992 51.1970954,42.4122906 52.9345274,41.4104112 L54.9436797,40.2519881 C56.6754743,39.2545813 59.5234646,39.2501087 61.2721712,40.2519881 L103.909721,64.6649722 C105.658427,65.6668516 105.660682,67.3027329 103.930015,68.3001396 L101.920863,69.4585627 C100.182303,70.4604422 97.3410778,70.4604422 95.5923712,69.4585627 L52.9548218,45.0455786" id="Fill-1" stroke="#F6F7F9" fill="#FFFFFF"></path>
                        </g>
                        <g id="Group-6" transform="translate(66.613504, 30.301422)" fill="#F6F7F9" stroke="#FFFFFF">
                            <path d="M52.4989695,25.7307463 L9.86254761,1.31776218 C8.1127135,0.315882746 5.26472319,0.320355422 3.53405607,1.31776218 L1.52377629,2.47618528 C-0.213655647,3.47694655 -0.204635884,5.10947331 1.54519823,6.11135274 L44.1816201,30.5243368 C45.9303267,31.5262162 48.7715522,31.5262162 50.5101116,30.5243368 L52.519264,29.3659137 C54.2499311,28.368507 54.2476761,26.7326257 52.4989695,25.7307463" id="Fill-4"></path>
                        </g>
                        <g id="Group-9" transform="translate(50.828918, 39.246774)" fill="#F6F7F9" stroke="#FFFFFF">
                            <path d="M10.5213286,1.08999115 C8.77149447,0.0881117183 5.92350416,0.0925843943 4.19283704,1.08999115 L2.18255726,2.24841425 C0.445125327,3.24917552 0.45414509,4.88170228 2.2039792,5.88358171 L44.8404011,30.2965658 C46.5891077,31.2984452 49.4303332,31.2984452 51.1688926,30.2965658 L53.1780449,29.1381427 C54.908712,28.1407359 54.9064571,26.5048547 53.1577505,25.5029752 L10.5213286,1.08999115 Z" id="Fill-7"></path>
                        </g>
                        <g id="Group-12" transform="translate(27.059290, 14.647056)" fill="#00CC54">
                            <path d="M29.8117413,3.92220145 C22.9736332,0.00637356338 11.9232955,0.00637356338 5.12915863,3.92220145 C-1.66497819,7.83802933 -1.62889914,14.1858748 5.2103365,18.1017027 C12.0484447,22.0164124 23.0976549,22.0175306 29.8917917,18.1017027 C36.6859286,14.1858748 36.6498495,7.83802933 29.8117413,3.92220145 M24.5960631,4.07427243 C24.5960631,4.07427243 27.4091019,4.37394173 29.3697729,5.49658342 C30.6900408,6.25246567 31.6247138,7.38181638 31.0530863,9.04565187 C30.4634193,10.7642776 28.9898154,11.8969829 27.4699853,12.6349744 L25.6107865,13.9745409 C25.6231887,14.3770817 25.364998,14.7807407 24.830577,15.0882372 C24.4506194,15.3073983 23.9815917,15.4460513 23.4888872,15.5053143 L17.5538828,19.7867834 C17.5538828,19.7867834 13.3021918,20.4017764 9.6108536,18.632833 C8.35372407,18.0334944 7.62650564,17.6533169 7.20821411,17.4140288 C7.0255639,17.3089209 6.90154215,17.2317672 6.81923681,17.1736224 C6.71776447,17.1266593 6.58134055,17.0550965 6.39869034,16.9499886 C5.97814387,16.7095823 5.31068137,16.2902689 4.26213387,15.5701681 C1.17286488,13.4557105 2.22817721,11.011393 2.22817721,11.011393 L9.66948207,7.58755947 C9.77208187,7.30578088 10.0122331,7.03853849 10.3910631,6.81937736 C10.855581,6.55213497 11.4463755,6.40341849 12.0529546,6.37322793 C12.2412421,6.04895891 12.9571858,5.63747271 14.3924557,5.11752412 C14.3924557,5.11752412 20.7750658,2.19127582 24.5960631,4.07427243" id="Fill-10"></path>
                        </g>
                        <g id="Group-15" transform="translate(28.279509, 21.356070)" fill="#023E1B">
                            <path d="M26.2493156,5.92562487 C25.5469015,6.26554825 24.8343402,6.52272712 24.1950645,6.71281585 C24.3202137,6.89060473 24.3844795,7.07845712 24.3912444,7.26630952 L26.2493156,5.92562487 M8.44881243,0.879328112 L1.00750758,4.30316163 C1.00750758,4.30316163 -0.0478047463,6.74747909 3.04259171,8.8619367 C4.09001174,9.58203754 4.75747424,10.0002328 5.17802071,10.2406391 C5.36179839,10.345747 5.49822231,10.4173098 5.59856718,10.4653911 C5.68199999,10.5224177 5.80602174,10.6006895 5.98754448,10.7046792 C6.40583601,10.9439674 7.13418191,11.3241449 8.39131144,11.9246016 C12.0815222,13.6924268 16.3332132,13.078552 16.3332132,13.078552 L22.269345,8.7970829 C21.5748232,8.8798274 20.8318202,8.80491008 20.2162213,8.57009459 C15.6510936,10.4463822 10.4692394,10.7974873 7.73737859,9.23205064 C5.00439026,7.66773219 5.5940573,4.6866936 8.84229961,2.05676008 C8.43415532,1.70565501 8.30336875,1.27851445 8.44881243,0.879328112" id="Fill-13"></path>
                        </g>
                        <g id="Group-18" transform="translate(36.171802, 20.237901)" fill="#FFFFFF">
                            <path d="M2.94033014,0.782382859 C2.33375105,0.812573422 1.74295654,0.961289901 1.27843872,1.22853229 C0.899608658,1.44769342 0.659457456,1.71605398 0.556857647,1.99783258 C0.411413961,2.39701891 0.542200531,2.82415948 0.949217357,3.17526455 C1.56030633,2.68103384 2.26610282,2.19798483 3.06096948,1.7406537 C3.2278351,1.64449117 3.3958282,1.55056497 3.5672037,1.45887511 C3.40033808,1.40743934 3.25940427,1.35153089 3.15116711,1.28891342 C2.90876097,1.15026046 2.82420069,0.982535112 2.94033014,0.782382859" id="Fill-16"></path>
                        </g>
                        <g id="Group-21" transform="translate(33.916861, 21.356070)" fill="#FFFFFF">
                            <path d="M13.1967032,0.794794535 C11.4705459,0.814921577 9.59330767,0.797030873 8.0858797,0.682977633 C7.12640236,1.29797059 5.56823823,1.67479355 4.64033006,1.85481876 C4.53998519,1.87382763 4.44753262,1.85593693 4.38552174,1.82015552 C4.30096146,1.77207425 4.2727747,1.69156608 4.35958992,1.62783045 C4.89626585,1.23870763 5.71593685,0.640487211 6.06319775,0.405671718 C5.97750999,0.385544676 5.89633212,0.363181296 5.82191907,0.340817915 C5.65167104,0.432507774 5.48255047,0.525315802 5.31568485,0.621478338 C4.52081819,1.07992763 3.81614917,1.56185848 3.2050602,2.05720735 C-0.044309588,4.68714087 -0.632849154,7.66817946 2.0990117,9.23249791 C4.83200003,10.7968164 10.0138541,10.4457113 14.5789819,8.57054185 C14.4324108,8.5146334 14.2926044,8.4497796 14.1629453,8.37486228 C13.1121429,7.77328735 13.1065055,6.79265312 14.1505432,6.18996002 C14.3309384,6.08708847 14.5305007,6.00098946 14.7424651,5.93278115 C13.5518564,4.71621326 12.2349709,2.78401721 13.1967032,0.794794535" id="Fill-19"></path>
                        </g>
                        <g id="Group-24" transform="translate(46.319036, 26.946915)" fill="#FFFFFF">
                            <path d="M6.15542483,1.12197079 C4.92535458,1.48761206 3.96249484,1.61172882 3.8531302,1.62514684 L2.91958469,2.13279558 C2.81134752,2.1898222 2.65801154,2.17864051 2.56894138,2.1283229 C2.52271509,2.10148684 2.49340086,2.06458727 2.4956558,2.02209684 C2.51369533,1.73584558 2.60276549,1.30311417 2.91281986,0.886037126 C2.73242459,0.726138957 2.53849968,0.543877408 2.34119235,0.342606986 C2.12922791,0.410815295 1.92853817,0.495796141 1.74927038,0.599785859 C0.704105285,1.20136079 0.709742637,2.18199501 1.76167255,2.78468811 C1.89133165,2.85848727 2.03001051,2.92334107 2.17770914,2.97924952 C2.79218053,3.21406501 3.53518354,3.28898234 4.22970533,3.20623783 C4.72240991,3.14697487 5.19031014,3.00720374 5.57139514,2.78804262 C6.10468866,2.48054614 6.36400686,2.07688713 6.35160468,1.67546445 C6.34596733,1.48761206 6.28057404,1.29975966 6.15542483,1.12197079" id="Fill-22"></path>
                        </g>
                        <g id="Group-27" transform="translate(38.426743, 18.001563)" fill="#023E1B">
                            <path d="M13.2288361,0.720212661 C9.40783878,-1.16390213 3.02410119,1.76346435 3.02410119,1.76346435 C1.58883133,2.28341294 0.874015079,2.69489914 0.685727517,3.01916815 C0.568470592,3.21932041 0.654158345,3.38592759 0.896564488,3.52569872 C1.00480165,3.58719801 1.14460798,3.64422463 1.31147361,3.69454224 C1.38701413,3.71802379 1.46706453,3.74038717 1.55275228,3.76051421 C1.59897857,3.73032365 1.63731256,3.70460576 1.66437185,3.68783322 L1.72976514,3.65876083 C1.88422859,3.60173421 3.85279196,2.89281505 4.24853408,3.1186852 C4.36579101,3.1868935 4.34436907,3.33672815 4.09632558,3.60956139 C3.95877418,3.76386872 3.78063385,3.90587618 3.57656171,4.03670196 C5.08398967,4.15187336 6.96122795,4.16976407 8.68738518,4.14963703 C9.25224786,2.98115041 10.6029574,1.79365491 13.2288361,0.720212661" id="Fill-25"></path>
                        </g>
                        <g id="Group-30" transform="translate(46.319036, 18.001563)" fill="#023E1B">
                            <path d="M5.33609206,0.720659929 C2.71021343,1.79298401 1.35950385,2.98047951 0.794641161,4.14896612 C-0.167091118,6.1381888 1.14979435,8.07038485 2.34040312,9.28807091 C2.53883792,9.48934133 2.73276283,9.67160288 2.91203063,9.83150105 C3.18713342,9.46026894 3.63699412,9.10133668 4.36421255,8.86540302 C5.23912961,8.58138809 5.69011778,8.60710598 5.91786681,8.73793175 C6.17718501,8.88664823 6.15012572,9.16954499 6.13095872,9.28583457 L6.05316326,9.37193359 L3.85346844,10.5694926 C3.96283308,10.5571927 4.92569283,10.433076 6.15576307,10.0674347 C6.7950388,9.87734598 7.50760012,9.62016711 8.2100142,9.28024373 C9.72984434,8.54225218 11.2034482,7.40954697 11.7931152,5.69092119 C12.3647427,4.0270857 11.4300698,2.897735 10.1098019,2.14185275 C8.14913079,1.01921106 5.33609206,0.720659929 5.33609206,0.720659929 Z" id="Fill-28"></path>
                        </g>
                        <g id="Group-33" transform="translate(37.299272, 20.237901)" fill="#023E1B">
                            <path d="M5.37600452,0.882906253 C4.98026239,0.655917943 3.01169902,1.36595527 2.85723557,1.42298189 L2.79184229,1.45205428 C2.76478299,1.46882682 2.726449,1.49342653 2.68022271,1.52473527 C2.33408929,1.75843259 1.51329081,2.35665301 0.977742359,2.74577583 C0.890927136,2.80951146 0.919113897,2.89001963 1.00254671,2.9381009 C1.06455758,2.97388231 1.15813763,2.99177301 1.2584825,2.97276414 C2.18526319,2.79273893 3.7445548,2.41591597 4.70403214,1.80092301 C4.90810429,1.66897907 5.08624462,1.5269716 5.22379601,1.37378245 C5.4718395,1.09983104 5.49326144,0.949996394 5.37600452,0.882906253" id="Fill-31"></path>
                        </g>
                        <g id="Group-36" transform="translate(48.573977, 25.828746)" fill="#023E1B">
                            <path d="M3.66337693,0.910972295 C3.43450043,0.780146521 2.98463973,0.754428633 2.1085952,1.03732539 C1.38137677,1.27437722 0.932643542,1.63330948 0.657540756,2.00454159 C0.347486387,2.42161863 0.258416223,2.85323187 0.240376696,3.13948314 C0.239249226,3.18309173 0.267435987,3.21999131 0.313662274,3.2457092 C0.402732439,3.29714497 0.556068417,3.30832666 0.665433049,3.25130004 L1.5978511,2.74253314 L3.79754591,1.54497413 L3.87646884,1.45775694 C3.89450837,1.34258553 3.92269513,1.05968877 3.66337693,0.910972295" id="Fill-34"></path>
                        </g>
                    </g>
                </g>
                <g id="Group" transform="translate(119.000000, 0.000000)">
                    <g id="Group-3" transform="translate(0.000000, 0.049850)">
                        <mask id="mask-11" fill="white">
                            <use xlink:href="#path-10"></use>
                        </mask>
                        <g id="Clip-2"></g>
                        <path d="M77.4144301,20.2776159 L46.934368,2.65736744 C40.9842748,-0.782384112 31.2880295,-0.78225662 25.3767717,2.65749493 L4.41291149,14.8559912 C-1.4984736,18.2957427 -1.46676863,23.9191883 4.48332453,27.3588124 L34.9633866,44.9790608 C40.9053307,48.4140951 50.6013214,48.4140951 56.5127065,44.9743436 L77.4764394,32.7759748 C83.3878245,29.3362233 83.3563742,23.7125227 77.4144301,20.2776159" id="Fill-1" fill="url(#linearGradient-9)" mask="url(#mask-11)"></path>
                    </g>
                    <g id="Group-34" transform="translate(26.229814, 12.034158)">
                        <path d="M24.4000804,2.17631219 C18.8506922,-0.70476659 10.4442916,-0.715220987 4.9066177,2.14622393 L6.41776056,3.01980353 C11.1230835,0.637475973 18.1865432,0.647547891 22.8993786,3.04963681 L24.4000804,2.17631219 M25.6391208,2.90008794 L24.1371457,3.77405002 C28.1923258,6.49958777 28.1983102,10.5509215 24.1402016,13.264985 L25.6504531,14.1381821 C30.5319997,10.9393916 30.52245,6.11009774 25.6391208,2.90008794 M24.4131953,14.8581331 L22.9028165,13.9850634 C18.2359469,16.3478846 11.2505401,16.3577015 6.53783199,14.0147692 L5.03674814,14.8882213 C10.5874096,17.710016 18.9139748,17.6998166 24.4131953,14.8581331 M5.18037547,3.73975449 L3.66923261,2.86617489 C-1.2464382,6.08740405 -1.20085435,10.9628503 3.78484752,14.1719676 L5.2847854,13.299153 C1.12786925,10.5737427 1.0875059,6.47702158 5.18037547,3.73975449" id="Fill-4" fill="#FFFFFF"></path>
                        <g id="Group-9" transform="translate(2.037267, 1.147434)" fill="#00C850">
                            <path d="M20.8620478,1.90215201 C16.1492124,-0.499809415 9.0857528,-0.509881334 4.38042981,1.87244622 L5.86776211,2.73225662 C6.21167826,2.93101765 6.21346087,3.25344655 5.87183665,3.45220758 C5.53021242,3.65096862 4.97518447,3.65147859 4.63050435,3.45220758 L3.14304472,2.59239719 C-0.949697516,5.32953678 -0.909334161,9.42625793 3.24745466,12.1517957 L4.67468758,11.3213086 C5.0163118,11.1225476 5.57223106,11.1225476 5.91601988,11.3213086 C6.2607,11.5205796 6.26171863,11.8424985 5.92009441,12.0412596 L4.50050124,12.8672844 C9.21333665,15.2103442 16.1986161,15.2005273 20.865613,12.8375786 L19.4880385,12.0412596 C19.1448863,11.842881 19.1423398,11.5200696 19.483964,11.3211811 C19.8255882,11.1224201 20.3815075,11.1224201 20.7252963,11.3211811 L22.1028708,12.1176277 C26.1611068,9.40356424 26.154995,5.35223047 22.0998149,2.62656522 L20.681113,3.45208009 C20.3394888,3.65096862 19.7843335,3.6513511 19.4396534,3.45208009 C19.0958646,3.25331906 19.0939547,2.93089016 19.4357062,2.73212913 L20.8620478,1.90215201 M5.97013478,3.5090693 C9.62002609,1.38529683 15.558023,1.38529683 19.2317248,3.50894181 C22.906318,5.63322426 22.925672,9.07718307 19.2757807,11.2009555 C15.6251255,13.325238 9.68801988,13.324728 6.01342671,11.2005731 C2.33972484,9.07680059 2.3194795,5.63335175 5.97013478,3.5090693" id="Fill-7"></path>
                        </g>
                        <g id="Group-12" transform="translate(5.220497, 3.059823)" fill="#FFFFFF">
                            <path d="M16.048546,1.59660314 C12.3748441,-0.527169336 6.4368472,-0.527169336 2.7869559,1.59673063 C-0.863699379,3.72088558 -0.843581366,7.16433442 2.83024783,9.2881069 C6.50471366,11.4123893 12.4419466,11.4127718 16.0926019,9.28848938 C19.7424932,7.1647169 19.7231391,3.72088558 16.048546,1.59660314 M4.09908323,2.35518437 C7.02930994,0.650097744 11.7947323,0.650607715 14.7441857,2.35556685 C17.6935118,4.06065348 17.7099373,6.82443903 14.7797106,8.52952566 C11.8494839,10.2346123 7.08317019,10.2346123 4.1338441,8.52952566 C1.18439068,6.82456653 1.16885652,4.060271 4.09908323,2.35518437" id="Fill-10"></path>
                        </g>
                        <g id="Group-15" transform="translate(7.130435, 4.079765)" fill="#00C850">
                            <path d="M12.8342096,1.33566394 C9.88475621,-0.369422687 5.11933385,-0.369805165 2.18910714,1.33528146 C-0.741119565,3.0402406 -0.725585404,5.80466362 2.22386801,7.50962275 C5.17332143,9.21470938 9.93950776,9.21458189 12.8697345,7.50962275 C15.7999612,5.80453612 15.783663,3.04075057 12.8342096,1.33566394 M4.25400466,2.5289951 C6.05112888,1.48330042 8.97473447,1.48330042 10.783573,2.5288676 C12.5931755,3.57507225 12.6018339,5.27021445 10.804837,6.31590912 C9.00771273,7.36160379 6.08499845,7.36211376 4.27526863,6.31590912 C2.46655745,5.27021445 2.45700776,3.57456228 4.25400466,2.5289951" id="Fill-13"></path>
                        </g>
                        <g id="Group-18" transform="translate(9.931677, 5.737169)" fill="#FFFFFF">
                            <path d="M7.98229255,0.87151422 C6.17345404,-0.174180451 3.24984845,-0.174180451 1.45285155,0.87151422 C-0.344272671,1.91720889 -0.334722981,3.61286107 1.47411553,4.65855574 C3.28371801,5.70463289 6.20655963,5.70412292 8.00355652,4.65855574 C9.80068075,3.61286107 9.79189503,1.91759137 7.98229255,0.87151422 M2.90147578,1.7090134 C3.90381118,1.12573455 5.53413416,1.12573455 6.54309068,1.7090134 C7.55268385,2.29267473 7.55803168,3.23828768 6.55569627,3.82143903 C5.55336087,4.40471788 3.92227391,4.40522785 2.91255342,3.82156653 C1.90372422,3.23828768 1.89914037,2.29229225 2.90147578,1.7090134" id="Fill-16"></path>
                        </g>
                        <g id="Group-21" transform="translate(12.096273, 7.012095)" fill="#00C850">
                            <path d="M4.34087849,0.429331035 C3.34338527,-0.143172912 1.73138183,-0.143047775 0.740309421,0.429331035 C-0.250762986,1.00183498 -0.246356541,1.93035505 0.751136685,2.50285899 C1.7495112,3.07573835 3.36239593,3.0752378 4.35334244,2.50285899 C5.34441484,1.93035505 5.33925301,1.00221039 4.34087849,0.429331035" id="Fill-19"></path>
                        </g>
                        <g id="Group-24" transform="translate(0.509317, 0.254985)" fill="#FFFFFF">
                            <path d="M7.39575062,3.62466688 L5.90841832,2.76485649 L4.39727547,1.89127689 L1.58317298,0.264470742 C1.23925683,0.0655822164 0.683337578,0.0655822164 0.341713354,0.264470742 C8.91304348e-05,0.463231775 0.00187173913,0.785660673 0.345787888,0.984421706 L3.15989037,2.61122785 L4.67103323,3.48480745 L6.15836553,4.34461785 C6.50304565,4.54388885 7.05820093,4.54337888 7.39982516,4.34461785 C7.74144938,4.14585682 7.73966677,3.82342792 7.39575062,3.62466688" id="Fill-22"></path>
                        </g>
                        <g id="Group-27" transform="translate(21.263975, 12.239294)" fill="#FFFFFF">
                            <path d="M4.38649068,1.8987862 L2.87623913,1.02571657 L1.4986646,0.229397516 C1.15474845,0.0306364825 0.598829193,0.0305089899 0.257204969,0.229397516 C-0.0844192547,0.428158549 -0.0817453416,0.750969925 0.261279503,0.94934848 L1.63885404,1.74566754 L3.14923292,2.61886466 L6.07385714,4.30954462 C6.41853727,4.50881563 6.97445652,4.50881563 7.31608075,4.31005459 C7.65770497,4.11129356 7.65515839,3.78835469 7.31124224,3.58959366 L4.38649068,1.8987862 Z" id="Fill-25"></path>
                        </g>
                        <g id="Group-30" transform="translate(21.136646, 0.254985)" fill="#FFFFFF">
                            <path d="M7.35250963,0.264317751 C7.00859348,0.0655567179 6.45280155,0.0655567179 6.11117733,0.264317751 L3.26345994,1.92133965 L1.76263075,2.79453678 L0.33628913,3.62464139 C-0.00533509317,3.82340242 -0.00355248447,4.14583132 0.340363665,4.34459235 C0.685043789,4.54386335 1.24007174,4.54335338 1.58169596,4.34459235 L3.00052516,3.51907748 L4.50237298,2.6451154 L7.35658416,0.984268715 C7.69820839,0.785507682 7.69718975,0.463588754 7.35250963,0.264317751" id="Fill-28"></path>
                        </g>
                        <path d="M7.95335062,12.4687297 C7.60943447,12.2699686 7.05364255,12.2699686 6.71189099,12.4687297 L5.2847854,13.2992167 L3.78484752,14.1720314 L0.937130124,15.8290533 C0.595505901,16.0278143 0.597288509,16.3502432 0.941204658,16.5490042 C1.28588478,16.7482753 1.84091273,16.7477653 2.18253696,16.5490042 L5.03674814,14.8881576 L6.53783199,14.0147055 L7.95742516,13.1886806 C8.29904938,12.9899196 8.29803075,12.6680007 7.95335062,12.4687297" id="Fill-31" fill="#FFFFFF"></path>
                    </g>
                </g>
            </g>
        </g>
    </g>
</svg>