<?xml version="1.0" encoding="UTF-8"?>
<svg width="48px" height="48px" viewBox="0 0 48 48" version="1.1" xmlns="http://www.w3.org/2000/svg" xmlns:xlink="http://www.w3.org/1999/xlink">
    <!-- Generator: Sketch 50.2 (55047) - http://www.bohemiancoding.com/sketch -->
    <title>Group 60</title>
    <desc>Created with Sketch.</desc>
    <defs>
        <polygon id="path-1" points="0 0.00159892677 29.9985 0.00159892677 29.9985 30.2953704 0 30.2953704"></polygon>
    </defs>
    <g id="Page-1" stroke="none" stroke-width="1" fill="none" fill-rule="evenodd">
        <g id="Home-Drop" transform="translate(-165.000000, -617.000000)">
            <g id="Group-60" transform="translate(165.000000, 617.000000)">
                <circle id="Oval-5-Copy-5" fill="#00C850" opacity="0.1" cx="24" cy="24" r="24"></circle>
                <g id="Group-Copy-5" transform="translate(9.000000, 9.000000)">
                    <g id="Group-3" transform="translate(0.000000, 0.703143)">
                        <mask id="mask-2" fill="white">
                            <use xlink:href="#path-1"></use>
                        </mask>
                        <g id="Clip-2"></g>
                        <path d="M29.9985,15.1484847 C29.9985,23.5139573 23.2832222,30.2953704 14.9993333,30.2953704 C6.71544444,30.2953704 -0.000111111111,23.5139573 -0.000111111111,15.1484847 C-0.000111111111,6.78301202 6.71544444,0.00159892677 14.9993333,0.00159892677 C23.2832222,0.00159892677 29.9985,6.78301202 29.9985,15.1484847" id="Fill-1" fill="#00CC54" mask="url(#mask-2)"></path>
                    </g>
                    <path d="M27.1791111,15.8516275 C27.1791111,22.6445417 21.7260556,28.1515821 14.9991111,28.1515821 C8.27244444,28.1515821 2.81938889,22.6445417 2.81938889,15.8516275 C2.81938889,9.0587134 8.27244444,3.551673 14.9991111,3.551673 C21.7260556,3.551673 27.1791111,9.0587134 27.1791111,15.8516275" id="Fill-4" fill="#FFFFFF" opacity="0.890680804"></path>
                    <path d="M27.1791111,16.6568415 C27.1791111,23.0051418 22.083,28.1514418 15.7966111,28.1514418 C9.51022222,28.1514418 4.41411111,23.0051418 4.41411111,16.6568415 C4.41411111,10.3085412 9.51022222,5.16224108 15.7966111,5.16224108 C22.083,5.16224108 27.1791111,10.3085412 27.1791111,16.6568415" id="Fill-6" fill="#00CC54" opacity="0.100000001"></path>
                    <path d="M14.9993056,16.8335649 C14.4623611,16.8335649 14.0270833,16.3940003 14.0270833,15.8517678 L14.0270833,7.66582378 C14.0270833,7.12387176 14.4623611,6.68402664 14.9993056,6.68402664 C15.53625,6.68402664 15.9715278,7.12387176 15.9715278,7.66582378 L15.9715278,15.8517678 C15.9715278,16.3940003 15.53625,16.8335649 14.9993056,16.8335649" id="Fill-8" fill="#00CC54"></path>
                    <path d="M14.0270833,16.8335649 C14.0270833,16.2913324 14.4623611,15.8517678 14.9993056,15.8517678 L23.1054167,15.8517678 C23.6420833,15.8517678 24.0776389,16.2913324 24.0776389,16.8335649 C24.0776389,17.3757975 23.6420833,17.8153621 23.1054167,17.8153621 L14.9993056,17.8153621 C14.4623611,17.8153621 14.0270833,17.3757975 14.0270833,16.8335649" id="Fill-10" fill="#00CC54"></path>
                </g>
            </g>
        </g>
    </g>
</svg>