<?xml version="1.0" encoding="UTF-8"?>
<svg width="48px" height="48px" viewBox="0 0 48 48" version="1.1" xmlns="http://www.w3.org/2000/svg" xmlns:xlink="http://www.w3.org/1999/xlink">
    <!-- Generator: Sketch 50.2 (55047) - http://www.bohemiancoding.com/sketch -->
    <title>Group 61</title>
    <desc>Created with Sketch.</desc>
    <defs>
        <polygon id="path-1" points="0.457056716 0.0625164179 10.3524627 0.0625164179 10.3524627 1.80936716 0.457056716 1.80936716"></polygon>
        <polygon id="path-3" points="0.519573134 0.125731343 2.26584179 0.125731343 2.26584179 10.0211373 0.519573134 10.0211373"></polygon>
    </defs>
    <g id="Page-1" stroke="none" stroke-width="1" fill="none" fill-rule="evenodd">
        <g id="Home-Drop" transform="translate(-390.000000, -617.000000)">
            <g id="Group-61" transform="translate(390.000000, 617.000000)">
                <circle id="Oval-4-Copy" fill="#00C850" opacity="0.100000001" cx="24" cy="24" r="24"></circle>
                <g id="Group-Copy" transform="translate(5.000000, 4.000000)">
                    <path d="M19.3599493,32.2483892 C12.4819791,32.2483892 6.90672537,26.6725534 6.90672537,19.7951653 C6.90672537,12.9171952 12.4819791,7.34135936 19.3599493,7.34135936 C26.2379194,7.34135936 31.8131731,12.9171952 31.8131731,19.7951653 C31.8131731,26.6725534 26.2379194,32.2483892 19.3599493,32.2483892 M19.3599493,5.22779219 C11.3148896,5.22779219 4.79257612,11.7495235 4.79257612,19.7951653 C4.79257612,27.840225 11.3148896,34.3619564 19.3599493,34.3619564 C27.405009,34.3619564 33.9273224,27.840225 33.9273224,19.7951653 C33.9273224,11.7495235 27.405009,5.22779219 19.3599493,5.22779219" id="Fill-1" fill="#00CC54"></path>
                    <path d="M19.3599493,29.1217534 C14.2090388,29.1217534 10.0331284,24.9458429 10.0331284,19.7949325 C10.0331284,14.644022 14.2090388,10.4681116 19.3599493,10.4681116 C24.5108597,10.4681116 28.6867701,14.644022 28.6867701,19.7949325 C28.6867701,24.9458429 24.5108597,29.1217534 19.3599493,29.1217534 M19.3599493,7.34170861 C12.4819791,7.34170861 6.90672537,12.9169623 6.90672537,19.7949325 C6.90672537,26.6729026 12.4819791,32.2481564 19.3599493,32.2481564 C26.2379194,32.2481564 31.8131731,26.6729026 31.8131731,19.7949325 C31.8131731,12.9169623 26.2379194,7.34170861 19.3599493,7.34170861" id="Fill-3" fill="#00CC54" opacity="0.318080359"></path>
                    <path d="M19.3599493,27.2814191 C15.2247851,27.2814191 11.8725313,23.9297474 11.8725313,19.7951653 C11.8725313,15.6605832 15.2247851,12.3083295 19.3599493,12.3083295 C23.4951134,12.3083295 26.8473672,15.6605832 26.8473672,19.7951653 C26.8473672,23.9297474 23.4951134,27.2814191 19.3599493,27.2814191 M19.3599493,10.4683444 C14.2090388,10.4683444 10.0331284,14.6436728 10.0331284,19.7951653 C10.0331284,24.9460758 14.2090388,29.1219862 19.3599493,29.1219862 C24.5108597,29.1219862 28.6867701,24.9460758 28.6867701,19.7951653 C28.6867701,14.6436728 24.5108597,10.4683444 19.3599493,10.4683444" id="Fill-5" fill="#00CC54"></path>
                    <path d="M19.3599493,24.3872116 C16.8237851,24.3872116 14.7678448,22.3312713 14.7678448,19.7951071 C14.7678448,17.2589429 16.8237851,15.2030026 19.3599493,15.2030026 C21.8961134,15.2030026 23.9520537,17.2589429 23.9520537,19.7951071 C23.9520537,22.3312713 21.8961134,24.3872116 19.3599493,24.3872116 M19.3599493,12.3082713 C15.2247851,12.3082713 11.8725313,15.660525 11.8725313,19.7951071 C11.8725313,23.9296892 15.2247851,27.2813609 19.3599493,27.2813609 C23.4951134,27.2813609 26.8473672,23.9296892 26.8473672,19.7951071 C26.8473672,15.660525 23.4951134,12.3082713 19.3599493,12.3082713" id="Fill-7" fill="#00CC54" opacity="0.04921875"></path>
                    <path d="M19.3599493,22.356534 C17.9454716,22.356534 16.7981731,21.2098176 16.7981731,19.7947579 C16.7981731,18.3802803 17.9454716,17.2335638 19.3599493,17.2335638 C20.7744269,17.2335638 21.9217254,18.3802803 21.9217254,19.7947579 C21.9217254,21.2098176 20.7744269,22.356534 19.3599493,22.356534 M19.3599493,15.2026534 C16.8237851,15.2026534 14.7678448,17.2585937 14.7678448,19.7947579 C14.7678448,22.3315041 16.8237851,24.3874444 19.3599493,24.3874444 C21.8961134,24.3874444 23.9520537,22.3315041 23.9520537,19.7947579 C23.9520537,17.2585937 21.8961134,15.2026534 19.3599493,15.2026534" id="Fill-9" fill="#00CC54"></path>
                    <path d="M16.7981731,19.7952235 C16.7981731,21.2097012 17.9454716,22.3564176 19.3599493,22.3564176 C20.7744269,22.3564176 21.9217254,21.2097012 21.9217254,19.7952235 C21.9217254,18.3801638 20.7744269,17.2334474 19.3599493,17.2334474 C17.9454716,17.2334474 16.7981731,18.3801638 16.7981731,19.7952235 Z" id="Fill-11" fill="#00CC54" opacity="0.179017857"></path>
                    <path d="M0.873134328,20.6684161 C0.391164179,20.6684161 0,20.2772519 0,19.7952817 C0,19.3133116 0.39058209,18.9221474 0.873134328,18.9221474 L9.02238806,18.9215653 C9.50435821,18.9215653 9.89552239,19.3127295 9.89552239,19.7946997 C9.89552239,20.2766698 9.5049403,20.667834 9.02238806,20.667834 L0.873134328,20.6684161 Z" id="Fill-13" fill="#00CC54"></path>
                    <g id="Group-17" transform="translate(28.522388, 18.859049)">
                        <mask id="mask-2" fill="white">
                            <use xlink:href="#path-1"></use>
                        </mask>
                        <g id="Clip-16"></g>
                        <path d="M1.33019104,1.80936716 C0.848220896,1.80936716 0.457056716,1.41820299 0.457056716,0.936232836 C0.457056716,0.454262687 0.847638806,0.0630985075 1.33019104,0.0630985075 L9.47944478,0.0625164179 C9.96141493,0.0625164179 10.3525791,0.453680597 10.3525791,0.935650746 C10.3525791,1.4176209 9.96199701,1.80878507 9.47944478,1.80878507 L1.33019104,1.80936716 Z" id="Fill-15" fill="#00CC54" mask="url(#mask-2)"></path>
                    </g>
                    <g id="Group-20" transform="translate(18.044776, 0.232183)">
                        <mask id="mask-4" fill="white">
                            <use xlink:href="#path-3"></use>
                        </mask>
                        <g id="Clip-19"></g>
                        <path d="M1.39270746,10.0211373 C0.910155224,10.0211373 0.519573134,9.62997313 0.519573134,9.14800299 L0.519573134,0.998749254 C0.519573134,0.516779104 0.910155224,0.125614925 1.39270746,0.125614925 C1.8752597,0.125614925 2.26584179,0.516779104 2.26584179,0.998749254 L2.26584179,9.14800299 C2.26584179,9.62997313 1.8752597,10.0211373 1.39270746,10.0211373" id="Fill-18" fill="#00CC54" mask="url(#mask-4)"></path>
                    </g>
                    <path d="M19.4374836,39.2321832 C18.9549313,39.2321832 18.5643493,38.8410191 18.5643493,38.3590489 L18.5643493,30.2097952 C18.5643493,29.727825 18.9549313,29.3366609 19.4374836,29.3366609 C19.9200358,29.3366609 20.3106179,29.727825 20.3106179,30.2097952 L20.3106179,38.3590489 C20.3106179,38.8410191 19.9200358,39.2321832 19.4374836,39.2321832" id="Fill-21" fill="#00CC54"></path>
                </g>
            </g>
        </g>
    </g>
</svg>