<?xml version="1.0" encoding="UTF-8"?>
<svg width="84px" height="85px" viewBox="0 0 84 85" version="1.1" xmlns="http://www.w3.org/2000/svg" xmlns:xlink="http://www.w3.org/1999/xlink">
    <!-- Generator: Sketch 50.2 (55047) - http://www.bohemiancoding.com/sketch -->
    <title>Group</title>
    <desc>Created with Sketch.</desc>
    <defs>
        <polygon id="path-1" points="0.984429851 0.134650746 22.2976119 0.134650746 22.2976119 3.89709851 0.984429851 3.89709851"></polygon>
        <polygon id="path-3" points="1.1190806 0.27080597 4.88027463 0.27080597 4.88027463 21.5839881 1.1190806 21.5839881"></polygon>
    </defs>
    <g id="Page-1" stroke="none" stroke-width="1" fill="none" fill-rule="evenodd">
        <g id="Home-Drop" transform="translate(-283.000000, -1782.000000)">
            <g id="Group-2" transform="translate(153.000000, 1724.000000)">
                <g id="Group" transform="translate(130.000000, 58.000000)">
                    <path d="M41.6983522,69.4580691 C26.8842627,69.4580691 14.8760239,57.4485765 14.8760239,42.6357407 C14.8760239,27.8216512 26.8842627,15.8121586 41.6983522,15.8121586 C56.5124418,15.8121586 68.5206806,27.8216512 68.5206806,42.6357407 C68.5206806,57.4485765 56.5124418,69.4580691 41.6983522,69.4580691 M41.6983522,11.2598601 C24.3705313,11.2598601 10.3224716,25.3066661 10.3224716,42.6357407 C10.3224716,59.9635616 24.3705313,74.0103676 41.6983522,74.0103676 C59.0261731,74.0103676 73.0742328,59.9635616 73.0742328,42.6357407 C73.0742328,25.3066661 59.0261731,11.2598601 41.6983522,11.2598601" id="Fill-1" fill="#00CC54"></path>
                    <path d="M41.6983522,62.7237765 C30.6040836,62.7237765 21.6098149,53.7295079 21.6098149,42.6352392 C21.6098149,31.5409706 30.6040836,22.5467019 41.6983522,22.5467019 C52.7926209,22.5467019 61.7868896,31.5409706 61.7868896,42.6352392 C61.7868896,53.7295079 52.7926209,62.7237765 41.6983522,62.7237765 M41.6983522,15.8129109 C26.8842627,15.8129109 14.8760239,27.8211497 14.8760239,42.6352392 C14.8760239,57.4493288 26.8842627,69.4575676 41.6983522,69.4575676 C56.5124418,69.4575676 68.5206806,57.4493288 68.5206806,42.6352392 C68.5206806,27.8211497 56.5124418,15.8129109 41.6983522,15.8129109" id="Fill-3" fill="#00CC54" opacity="0.100000001"></path>
                    <path d="M41.6983522,58.7599795 C32.7918448,58.7599795 25.571606,51.5409944 25.571606,42.6357407 C25.571606,33.730487 32.7918448,26.5102482 41.6983522,26.5102482 C50.6048597,26.5102482 57.8250985,33.730487 57.8250985,42.6357407 C57.8250985,51.5409944 50.6048597,58.7599795 41.6983522,58.7599795 M41.6983522,22.5472034 C30.6040836,22.5472034 21.6098149,31.5402183 21.6098149,42.6357407 C21.6098149,53.7300094 30.6040836,62.724278 41.6983522,62.724278 C52.7926209,62.724278 61.7868896,53.7300094 61.7868896,42.6357407 C61.7868896,31.5402183 52.7926209,22.5472034 41.6983522,22.5472034" id="Fill-5" fill="#00CC54"></path>
                    <path d="M41.6983522,52.5263019 C36.2358448,52.5263019 31.8076657,48.0981228 31.8076657,42.6356153 C31.8076657,37.1731079 36.2358448,32.7449288 41.6983522,32.7449288 C47.1608597,32.7449288 51.5890388,37.1731079 51.5890388,42.6356153 C51.5890388,48.0981228 47.1608597,52.5263019 41.6983522,52.5263019 M41.6983522,26.5101228 C32.7918448,26.5101228 25.571606,33.7303616 25.571606,42.6356153 C25.571606,51.5408691 32.7918448,58.7598541 41.6983522,58.7598541 C50.6048597,58.7598541 57.8250985,51.5408691 57.8250985,42.6356153 C57.8250985,33.7303616 50.6048597,26.5101228 41.6983522,26.5101228" id="Fill-7" fill="#00CC54" opacity="0.04921875"></path>
                    <path d="M41.6983522,48.1525347 C38.6517851,48.1525347 36.1806806,45.682684 36.1806806,42.6348631 C36.1806806,39.5882959 38.6517851,37.1184452 41.6983522,37.1184452 C44.7449194,37.1184452 47.2160239,39.5882959 47.2160239,42.6348631 C47.2160239,45.682684 44.7449194,48.1525347 41.6983522,48.1525347 M41.6983522,32.7441765 C36.2358448,32.7441765 31.8076657,37.1723556 31.8076657,42.6348631 C31.8076657,48.0986243 36.2358448,52.5268034 41.6983522,52.5268034 C47.1608597,52.5268034 51.5890388,48.0986243 51.5890388,42.6348631 C51.5890388,37.1723556 47.1608597,32.7441765 41.6983522,32.7441765" id="Fill-9" fill="#00CC54"></path>
                    <path d="M36.1806806,42.6358661 C36.1806806,45.6824332 38.6517851,48.152284 41.6983522,48.152284 C44.7449194,48.152284 47.2160239,45.6824332 47.2160239,42.6358661 C47.2160239,39.5880452 44.7449194,37.1181944 41.6983522,37.1181944 C38.6517851,37.1181944 36.1806806,39.5880452 36.1806806,42.6358661 Z" id="Fill-11" fill="#00CC54" opacity="0.179017857"></path>
                    <path d="M1.88059701,44.5165885 C0.842507463,44.5165885 0,43.674081 0,42.6359915 C0,41.5979019 0.841253731,40.7553944 1.88059701,40.7553944 L19.4328358,40.7541407 C20.4709254,40.7541407 21.3134328,41.5966482 21.3134328,42.6347377 C21.3134328,43.6728273 20.4721791,44.5153347 19.4328358,44.5153347 L1.88059701,44.5165885 Z" id="Fill-13" fill="#00CC54"></path>
                    <g id="Group-17" transform="translate(61.432836, 40.619490)">
                        <mask id="mask-2" fill="white">
                            <use xlink:href="#path-1"></use>
                        </mask>
                        <g id="Clip-16"></g>
                        <path d="M2.86502687,3.89709851 C1.82693731,3.89709851 0.984429851,3.05459104 0.984429851,2.01650149 C0.984429851,0.97841194 1.82568358,0.135904478 2.86502687,0.135904478 L20.4172657,0.134650746 C21.4553552,0.134650746 22.2978627,0.977158209 22.2978627,2.01524776 C22.2978627,3.05333731 21.456609,3.89584478 20.4172657,3.89584478 L2.86502687,3.89709851 Z" id="Fill-15" fill="#00CC54" mask="url(#mask-2)"></path>
                    </g>
                    <g id="Group-20" transform="translate(38.865672, 0.500087)">
                        <mask id="mask-4" fill="white">
                            <use xlink:href="#path-3"></use>
                        </mask>
                        <g id="Clip-19"></g>
                        <path d="M2.99967761,21.5839881 C1.96033433,21.5839881 1.1190806,20.7414806 1.1190806,19.703391 L1.1190806,2.15115224 C1.1190806,1.11306269 1.96033433,0.270555224 2.99967761,0.270555224 C4.0390209,0.270555224 4.88027463,1.11306269 4.88027463,2.15115224 L4.88027463,19.703391 C4.88027463,20.7414806 4.0390209,21.5839881 2.99967761,21.5839881" id="Fill-18" fill="#00CC54" mask="url(#mask-4)"></path>
                    </g>
                    <path d="M41.8653493,84.500087 C40.826006,84.500087 39.9847522,83.6575795 39.9847522,82.61949 L39.9847522,65.0672512 C39.9847522,64.0291616 40.826006,63.1866541 41.8653493,63.1866541 C42.9046925,63.1866541 43.7459463,64.0291616 43.7459463,65.0672512 L43.7459463,82.61949 C43.7459463,83.6575795 42.9046925,84.500087 41.8653493,84.500087" id="Fill-21" fill="#00CC54"></path>
                </g>
            </g>
        </g>
    </g>
</svg>