<?xml version="1.0" encoding="UTF-8"?>
<svg width="48px" height="48px" viewBox="0 0 48 48" version="1.1" xmlns="http://www.w3.org/2000/svg" xmlns:xlink="http://www.w3.org/1999/xlink">
    <!-- Generator: Sketch 50.2 (55047) - http://www.bohemiancoding.com/sketch -->
    <title>Group 63</title>
    <desc>Created with Sketch.</desc>
    <defs>
        <polygon id="path-1" points="0.16947541 0.0492760301 3.36811475 0.0492760301 3.36811475 3.22715817 0.16947541 3.22715817"></polygon>
    </defs>
    <g id="Page-1" stroke="none" stroke-width="1" fill="none" fill-rule="evenodd">
        <g id="Home-Drop" transform="translate(-663.000000, -617.000000)">
            <g id="Group-63" transform="translate(663.000000, 617.000000)">
                <circle id="Oval-4-Copy-2" fill="#00C850" opacity="0.100000001" cx="24" cy="24" r="24"></circle>
                <g id="Group-Copy-4" transform="translate(9.000000, 10.000000)">
                    <polygon id="Fill-1" fill="#00CC54" opacity="0.5" points="1.59936885 13.9785379 1.59936885 26.9954984 28.3261721 26.9954984 28.3261721 1.8371821 16.4508443 20.0544262 6.49256557 7.72698272"></polygon>
                    <path d="M1.58840164,14.6899885 C1.44553279,14.6899885 1.30118852,14.6470642 1.17651639,14.5577421 C0.860286885,14.3312113 0.788729508,13.8930368 1.01643443,13.5789207 L5.94012295,6.95618254 C6.07290984,6.77356845 6.28586066,6.66514134 6.51282787,6.66514134 L6.51430328,6.66514134 C6.7420082,6.66563757 6.95520492,6.77530527 7.0870082,6.95891183 L15.6384836,18.8712556 L27.6861885,1.4199486 C27.912418,1.10459194 28.3530738,1.03114931 28.6702869,1.25643952 C28.9875,1.4812335 29.0612705,1.91891183 28.835041,2.2342685 L16.2129098,20.4857528 C16.0806148,20.6701037 15.8666803,20.7795233 15.6384836,20.7795233 C15.4105328,20.7795233 15.1965984,20.6701037 15.0640574,20.4857528 L6.50987705,8.56943908 L2.16135246,14.3989473 C2.02340164,14.5890049 1.8075,14.6899885 1.58840164,14.6899885" id="Fill-3" fill="#00CC54"></path>
                    <path d="M8.09198361,7.72700753 C8.09198361,8.60459725 7.37591803,9.3159486 6.49263934,9.3159486 C5.60936066,9.3159486 4.89329508,8.60459725 4.89329508,7.72700753 C4.89329508,6.84941781 5.60936066,6.13806646 6.49263934,6.13806646 C7.37591803,6.13806646 8.09198361,6.84941781 8.09198361,7.72700753" id="Fill-5" fill="#00CC54"></path>
                    <path d="M7.20868033,7.72700753 C7.20868033,8.12002481 6.88802459,8.43835888 6.49261475,8.43835888 C6.09720492,8.43835888 5.77654918,8.12002481 5.77654918,7.72700753 C5.77654918,7.33399025 6.09720492,7.01565618 6.49261475,7.01565618 C6.88802459,7.01565618 7.20868033,7.33399025 7.20868033,7.72700753" id="Fill-7" fill="#FFFFFF"></path>
                    <path d="M3.19871311,13.9785379 C3.19871311,14.8561276 2.48264754,15.567479 1.59936885,15.567479 C0.716090164,15.567479 2.45901639e-05,14.8561276 2.45901639e-05,13.9785379 C2.45901639e-05,13.1009482 0.716090164,12.3895968 1.59936885,12.3895968 C2.48264754,12.3895968 3.19871311,13.1009482 3.19871311,13.9785379" id="Fill-9" fill="#00CC54"></path>
                    <path d="M2.31540984,13.9785379 C2.31540984,14.3715552 1.9947541,14.6898892 1.59934426,14.6898892 C1.20393443,14.6898892 0.883278689,14.3715552 0.883278689,13.9785379 C0.883278689,13.5855206 1.20393443,13.2671865 1.59934426,13.2671865 C1.9947541,13.2671865 2.31540984,13.5855206 2.31540984,13.9785379" id="Fill-11" fill="#FFFFFF"></path>
                    <path d="M17.3342705,20.0543518 C17.3342705,20.9319415 16.6182049,21.6432929 15.7349262,21.6432929 C14.8516475,21.6432929 14.135582,20.9319415 14.135582,20.0543518 C14.135582,19.1767621 14.8516475,18.4654107 15.7349262,18.4654107 C16.6182049,18.4654107 17.3342705,19.1767621 17.3342705,20.0543518" id="Fill-13" fill="#00CC54"></path>
                    <path d="M16.4509426,20.0543518 C16.4509426,20.4473691 16.1302869,20.7657031 15.734877,20.7657031 C15.3394672,20.7657031 15.0188115,20.4473691 15.0188115,20.0543518 C15.0188115,19.6613345 15.3394672,19.3430004 15.734877,19.3430004 C16.1302869,19.3430004 16.4509426,19.6613345 16.4509426,20.0543518" id="Fill-15" fill="#FFFFFF"></path>
                    <g id="Group-19" transform="translate(26.557377, 0.198990)">
                        <mask id="mask-2" fill="white">
                            <use xlink:href="#path-1"></use>
                        </mask>
                        <g id="Clip-18"></g>
                        <path d="M3.36816393,1.6382171 C3.36816393,2.51580682 2.65209836,3.22715817 1.76881967,3.22715817 C0.885540984,3.22715817 0.16947541,2.51580682 0.16947541,1.6382171 C0.16947541,0.760627381 0.885540984,0.0492760301 1.76881967,0.0492760301 C2.65209836,0.0492760301 3.36816393,0.760627381 3.36816393,1.6382171" id="Fill-17" fill="#00CC54" mask="url(#mask-2)"></path>
                    </g>
                    <path d="M29.0422377,1.83720691 C29.0422377,2.23022419 28.721582,2.54855826 28.3261721,2.54855826 C27.9307623,2.54855826 27.6101066,2.23022419 27.6101066,1.83720691 C27.6101066,1.44418963 27.9307623,1.12585556 28.3261721,1.12585556 C28.721582,1.12585556 29.0422377,1.44418963 29.0422377,1.83720691" id="Fill-20" fill="#FFFFFF"></path>
                    <path d="M1.59936885,26.9956225 L27.6101066,26.9956225" id="Stroke-22" stroke="#00CC54" stroke-width="4" stroke-linecap="round" stroke-linejoin="round"></path>
                </g>
            </g>
        </g>
    </g>
</svg>