<?xml version="1.0" encoding="UTF-8"?>
<svg width="71px" height="59px" viewBox="0 0 71 59" version="1.1" xmlns="http://www.w3.org/2000/svg" xmlns:xlink="http://www.w3.org/1999/xlink">
    <!-- Generator: Sketch 50.2 (55047) - http://www.bohemiancoding.com/sketch -->
    <title>Group</title>
    <desc>Created with Sketch.</desc>
    <defs>
        <polygon id="path-1" points="0 0 67 0 67 53 0 53"></polygon>
    </defs>
    <g id="Page-1" stroke="none" stroke-width="1" fill="none" fill-rule="evenodd">
        <g id="Home-Drop" transform="translate(-684.000000, -1795.000000)">
            <g id="Group-2" transform="translate(153.000000, 1724.000000)">
                <g id="Group" transform="translate(533.000000, 73.000000)">
                    <g id="Group-3" opacity="0.100000001">
                        <mask id="mask-2" fill="white">
                            <use xlink:href="#path-1"></use>
                        </mask>
                        <g id="Clip-2"></g>
                        <path d="M57.3808399,0 L9.6191601,0 C4.30714286,0 0,4.16589112 0,9.30370201 L0,36.0910258 C0,41.2288367 4.30714286,45.3947278 9.6191601,45.3947278 L13.8094863,45.3947278 L17.8729471,52.2018109 C18.5072741,53.266063 20.0962317,53.266063 20.7318148,52.2018109 L24.7952756,45.3947278 L57.3808399,45.3947278 C62.6941132,45.3947278 67,41.2288367 67,36.0910258 L67,9.30370201 C67,4.16589112 62.6941132,0 57.3808399,0" id="Fill-1" fill="#00CC54" mask="url(#mask-2)"></path>
                        <path d="M57.3808399,0 L9.6191601,0 C4.30714286,0 0,4.16589112 0,9.30370201 L0,36.0910258 C0,41.2288367 4.30714286,45.3947278 9.6191601,45.3947278 L13.8094863,45.3947278 L17.8729471,52.2018109 C18.5072741,53.266063 20.0962317,53.266063 20.7318148,52.2018109 L24.7952756,45.3947278 L57.3808399,45.3947278 C62.6941132,45.3947278 67,41.2288367 67,36.0910258 L67,9.30370201 C67,4.16589112 62.6941132,0 57.3808399,0" id="Fill-1-Copy" fill="#00CC54" mask="url(#mask-2)"></path>
                    </g>
                    <path d="M57.3808399,0 L9.6191601,0 C4.30714286,0 0,4.32309456 0,9.6547851 L0,37.4529513 C0,42.7846418 4.30714286,47.1077364 9.6191601,47.1077364 L13.8094863,47.1077364 L17.8729471,54.1716905 C18.5072741,55.2761032 20.0962317,55.2761032 20.7318148,54.1716905 L24.7952756,47.1077364 L57.3808399,47.1077364 C62.6941132,47.1077364 67,42.7846418 67,37.4529513 L67,9.6547851 C67,4.32309456 62.6941132,0 57.3808399,0" id="Fill-1-Copy-2" stroke="#00CC54" stroke-width="3"></path>
                    <path d="M23,24.5 C23,26.4334314 21.4337194,28 19.5006435,28 C17.5675676,28 16,26.4334314 16,24.5 C16,22.5665686 17.5675676,21 19.5006435,21 C21.4337194,21 23,22.5665686 23,24.5" id="Fill-4" fill="#00C850"></path>
                    <path d="M37,24.5 C37,26.4334314 35.4337194,28 33.5006435,28 C31.5675676,28 30,26.4334314 30,24.5 C30,22.5665686 31.5675676,21 33.5006435,21 C35.4337194,21 37,22.5665686 37,24.5" id="Fill-6" fill="#00C850"></path>
                    <path d="M51,24.5 C51,26.4334314 49.4337194,28 47.5006435,28 C45.5675676,28 44,26.4334314 44,24.5 C44,22.5665686 45.5675676,21 47.5006435,21 C49.4337194,21 51,22.5665686 51,24.5" id="Fill-8" fill="#00C850"></path>
                </g>
            </g>
        </g>
    </g>
</svg>