<?xml version="1.0" encoding="UTF-8"?>
<svg width="171px" height="55px" viewBox="0 0 171 55" version="1.1" xmlns="http://www.w3.org/2000/svg" xmlns:xlink="http://www.w3.org/1999/xlink">
    <!-- Generator: Sketch 50.2 (55047) - http://www.bohemiancoding.com/sketch -->
    <title>Group</title>
    <desc>Created with Sketch.</desc>
    <defs>
        <polygon id="path-1" points="0 0.431599201 54.2024109 0.431599201 54.2024109 54.7921679 0 54.7921679"></polygon>
    </defs>
    <g id="Symbols" stroke="none" stroke-width="1" fill="none" fill-rule="evenodd">
        <g id="header" transform="translate(-153.000000, -17.000000)">
            <g id="Group" transform="translate(153.000000, 17.000000)">
                <g id="Page-1">
                    <g id="Group-5">
                        <g id="Group-3" transform="translate(0.000000, 0.116488)">
                            <mask id="mask-2" fill="white">
                                <use xlink:href="#path-1"></use>
                            </mask>
                            <g id="Clip-2"></g>
                            <path d="M54.2024109,27.6118835 C54.2024109,42.6233388 42.0690594,54.7921679 27.1013693,54.7921679 C12.1336792,54.7921679 -0.000218530351,42.6233388 -0.000218530351,27.6118835 C-0.000218530351,12.6004283 12.1336792,0.431599201 27.1013693,0.431599201 C42.0690594,0.431599201 54.2024109,12.6004283 54.2024109,27.6118835" id="Fill-1" fill="#00CC54" mask="url(#mask-2)"></path>
                        </g>
                        <path d="M14.9453454,26.1541335 L20.0791696,26.1541335 C20.8003198,26.1541335 20.9276137,26.0264674 20.9276137,25.1755425 L20.9276137,24.2391415 C20.9276137,22.0693652 19.8671952,21.0052981 18.0424668,21.0052981 C15.9636968,21.0052981 14.9453454,22.0693652 14.9453454,24.2391415 L14.9453454,26.1541335 Z M10.0661089,29.4301671 L10.0661089,26.0264674 C10.0661089,20.0688971 13.1632304,16.6651974 18.0850802,16.6651974 C22.8790898,16.6651974 25.7221696,19.7713748 25.7221696,24.7498061 L25.7221696,26.579322 C25.7221696,29.302501 25.0857,29.8131655 22.666569,29.8131655 L14.9453454,29.8131655 L14.9453454,31.0898268 C14.9453454,33.132485 15.7943358,34.4513364 18.636323,34.4513364 L23.7280802,34.4513364 C24.5765243,34.4513364 25.0004732,34.8770728 25.0004732,35.7279978 L25.0004732,36.1959243 C25.0004732,38.1958444 23.6428534,38.7914371 18.9755914,38.7914371 C12.5693741,38.7914371 10.0661089,35.6852597 10.0661089,29.4301671 Z" id="Fill-4" fill="#FFFFFF"></path>
                        <path d="M39.2570655,24.2390319 C39.2570655,22.0692556 38.2387141,21.0051885 36.1599441,21.0051885 C34.3352157,21.0051885 33.2747971,22.0692556 33.2747971,24.2390319 L33.2747971,25.1754329 C33.2747971,26.0263578 33.4020911,26.154024 34.1232412,26.154024 L39.2570655,26.154024 L39.2570655,24.2390319 Z M35.2268195,38.7918754 C30.5595575,38.7918754 29.2019377,38.1957348 29.2019377,36.1958147 L29.2019377,35.7278882 C29.2019377,34.8769633 29.6258866,34.4512268 30.4743307,34.4512268 L35.5660879,34.4512268 C38.4080751,34.4512268 39.2570655,33.1323754 39.2570655,31.0897173 L39.2570655,29.8130559 L31.5358419,29.8130559 C29.1167109,29.8130559 28.4802412,29.3023914 28.4802412,26.5792125 L28.4802412,24.7496965 C28.4802412,19.7712652 31.3233211,16.6650879 36.1173307,16.6650879 C41.0391805,16.6650879 44.1363019,20.0693355 44.1363019,26.0263578 L44.1363019,29.4306054 C44.1363019,35.6856981 41.6330367,38.7918754 35.2268195,38.7918754 Z" id="Fill-6" fill="#FFFFFF"></path>
                    </g>
                    <path d="M88.9603188,26.4130821 L93.2500696,26.4130821 C93.8521208,26.4130821 93.958108,26.3062371 93.958108,25.5955805 L93.958108,24.813146 C93.958108,23.0000677 93.0725137,22.1107882 91.5482645,22.1107882 C89.8114946,22.1107882 88.9603188,23.0000677 88.9603188,24.813146 L88.9603188,26.4130821 Z M84.8836351,29.150507 L84.8836351,26.3062371 C84.8836351,21.3289016 87.4715808,18.4846316 91.5837757,18.4846316 C95.5888907,18.4846316 97.9643157,21.0801444 97.9643157,25.2399783 L97.9643157,26.7681364 C97.9643157,29.043662 97.4327406,29.4704942 95.4118812,29.4704942 L88.9603188,29.4704942 L88.9603188,30.536753 C88.9603188,32.2435342 89.6694498,33.345408 92.0443284,33.345408 L96.2980217,33.345408 C97.007699,33.345408 97.3611719,33.7010102 97.3611719,34.4122147 L97.3611719,34.802884 C97.3611719,36.4740502 96.2269994,36.9721125 92.3278716,36.9721125 C86.9749706,36.9721125 84.8836351,34.3765997 84.8836351,29.150507 Z" id="Fill-8" fill="#3C3C3B"></path>
                    <path d="M104.345457,26.4130821 L108.635207,26.4130821 C109.237258,26.4130821 109.343246,26.3062371 109.343246,25.5955805 L109.343246,24.813146 C109.343246,23.0000677 108.457651,22.1107882 106.933402,22.1107882 C105.196632,22.1107882 104.345457,23.0000677 104.345457,24.813146 L104.345457,26.4130821 Z M100.268773,29.150507 L100.268773,26.3062371 C100.268773,21.3289016 102.856719,18.4846316 106.968913,18.4846316 C110.974028,18.4846316 113.349453,21.0801444 113.349453,25.2399783 L113.349453,26.7681364 C113.349453,29.043662 112.817878,29.4704942 110.797019,29.4704942 L104.345457,29.4704942 L104.345457,30.536753 C104.345457,32.2435342 105.054588,33.345408 107.429466,33.345408 L111.683159,33.345408 C112.392837,33.345408 112.74631,33.7010102 112.74631,34.4122147 L112.74631,34.802884 C112.74631,36.4740502 111.612137,36.9721125 107.713009,36.9721125 C102.360108,36.9721125 100.268773,34.3765997 100.268773,29.150507 Z" id="Fill-10" fill="#3C3C3B"></path>
                    <path d="M73.751699,35.5496487 C73.751699,36.2608532 73.3971335,36.6164554 72.6885489,36.6164554 L70.8091879,36.6164554 C70.1011495,36.6164554 69.7460377,36.2608532 69.7460377,35.5496487 L69.7460377,25.1330784 C69.7460377,23.0000129 69.2144626,22.1107334 67.5481687,22.1107334 C67.0171399,22.1107334 66.5560409,22.1468963 66.1659642,22.2888085 C65.7409227,22.4668835 65.6338428,22.6444107 65.6338428,23.3556152 L65.6338428,35.5496487 C65.6338428,36.2608532 65.2792773,36.6164554 64.5706927,36.6164554 L62.691878,36.6164554 C61.9832933,36.6164554 61.6287278,36.2608532 61.6287278,35.5496487 L61.6287278,22.6444107 C61.6287278,20.4050481 62.3378588,19.7294586 63.7200633,19.1957813 C64.889747,18.6626519 66.2369866,18.4851248 67.4776927,18.4851248 C69.2144626,18.4851248 70.5617022,18.8045641 71.5188652,19.4801535 C72.7590249,18.8045641 74.3193316,18.4851248 75.6310601,18.4851248 C80.2032613,18.4851248 81.8695553,20.6532573 81.8695553,25.4886807 L81.8695553,35.5496487 C81.8695553,36.2608532 81.5149898,36.6164554 80.8064051,36.6164554 L78.9270441,36.6164554 C78.2184594,36.6164554 77.8638939,36.2608532 77.8638939,35.5496487 L77.8638939,25.1330784 C77.8638939,23.0000129 77.3317725,22.1107334 75.6654786,22.1107334 C75.1344498,22.1107334 74.6733508,22.1468963 74.2838204,22.2888085 C73.8576863,22.4668835 73.751699,22.6444107 73.751699,23.3556152 L73.751699,35.5496487 Z" id="Fill-12" fill="#3C3C3B"></path>
                    <path d="M115.830483,22.2534674 C115.121898,22.2534674 114.767333,21.8978652 114.767333,21.1866607 L114.767333,19.9072597 C114.767333,19.1955073 115.121898,18.840453 115.830483,18.840453 L116.964656,18.840453 L116.964656,16.3517853 C116.964656,15.6405808 117.319221,15.2849786 118.028898,15.2849786 L119.907167,15.2849786 C120.616298,15.2849786 120.970863,15.6405808 120.970863,16.3517853 L120.970863,18.840453 L123.381253,18.840453 C124.089838,18.840453 124.444403,19.1955073 124.444403,19.9072597 L124.444403,21.1866607 C124.444403,21.8978652 124.089838,22.2534674 123.381253,22.2534674 L120.970863,22.2534674 L120.970863,32.2788204 C120.970863,32.9900249 121.324882,33.3456272 122.034013,33.3456272 L123.381253,33.3456272 C124.089838,33.3456272 124.444403,33.7012294 124.444403,34.4118859 L124.444403,34.8031032 C124.444403,36.2605792 123.310231,36.9717837 121.005828,36.9717837 C117.78032,36.9717837 116.964656,35.4074626 116.964656,31.9944482 L116.964656,22.2534674 L115.830483,22.2534674 Z" id="Fill-14" fill="#3C3C3B"></path>
                    <path d="M127.812666,36.6162363 C127.104081,36.6162363 126.749516,36.260634 126.749516,35.5494296 L126.749516,19.9073145 C126.749516,19.1955621 127.104081,18.8405078 127.812666,18.8405078 L129.692027,18.8405078 C130.400612,18.8405078 130.755177,19.1955621 130.755177,19.9073145 L130.755177,35.5494296 C130.755177,36.260634 130.400612,36.6162363 129.692027,36.6162363 L127.812666,36.6162363 Z M126.536449,15.0006612 C126.536449,13.5431851 127.281637,12.7963657 128.770375,12.7963657 C130.258567,12.7963657 131.003756,13.5431851 131.003756,15.0006612 C131.003756,16.4943002 130.258567,17.2405717 128.770375,17.2405717 C127.281637,17.2405717 126.536449,16.4943002 126.536449,15.0006612 Z" id="Fill-16" fill="#3C3C3B"></path>
                    <path d="M146.77815,35.5496487 C146.77815,36.2608532 146.423585,36.6164554 145.715,36.6164554 L143.835639,36.6164554 C143.127601,36.6164554 142.772489,36.2608532 142.772489,35.5496487 L142.772489,25.1330784 C142.772489,23.0000129 142.240914,22.1107334 140.57462,22.1107334 C140.043591,22.1107334 139.582492,22.1468963 139.192416,22.2888085 C138.767374,22.4668835 138.660294,22.6444107 138.660294,23.3556152 L138.660294,35.5496487 C138.660294,36.2608532 138.305729,36.6164554 137.597144,36.6164554 L135.718329,36.6164554 C135.009745,36.6164554 134.655179,36.2608532 134.655179,35.5496487 L134.655179,22.6444107 C134.655179,20.4050481 135.36431,19.7294586 136.746515,19.1957813 C137.916198,18.6626519 139.263438,18.4851248 140.504144,18.4851248 C142.240914,18.4851248 143.588154,18.8045641 144.545317,19.4801535 C145.785476,18.8045641 147.345783,18.4851248 148.657512,18.4851248 C153.229713,18.4851248 154.896007,20.6532573 154.896007,25.4886807 L154.896007,35.5496487 C154.896007,36.2608532 154.541441,36.6164554 153.832857,36.6164554 L151.953496,36.6164554 C151.244911,36.6164554 150.890345,36.2608532 150.890345,35.5496487 L150.890345,25.1330784 C150.890345,23.0000129 150.358224,22.1107334 148.692476,22.1107334 C148.160901,22.1107334 147.699802,22.1468963 147.310272,22.2888085 C146.884138,22.4668835 146.77815,22.6444107 146.77815,23.3556152 L146.77815,35.5496487 Z" id="Fill-18" fill="#3C3C3B"></path>
                    <path d="M161.985951,26.4130821 L166.275702,26.4130821 C166.877753,26.4130821 166.98374,26.3062371 166.98374,25.5955805 L166.98374,24.813146 C166.98374,23.0000677 166.098146,22.1107882 164.573896,22.1107882 C162.837127,22.1107882 161.985951,23.0000677 161.985951,24.813146 L161.985951,26.4130821 Z M157.909267,29.150507 L157.909267,26.3062371 C157.909267,21.3289016 160.497213,18.4846316 164.609408,18.4846316 C168.614523,18.4846316 170.989948,21.0801444 170.989948,25.2399783 L170.989948,26.7681364 C170.989948,29.043662 170.458373,29.4704942 168.437513,29.4704942 L161.985951,29.4704942 L161.985951,30.536753 C161.985951,32.2435342 162.695082,33.345408 165.06996,33.345408 L169.323654,33.345408 C170.033331,33.345408 170.386804,33.7010102 170.386804,34.4122147 L170.386804,34.802884 C170.386804,36.4740502 169.252631,36.9721125 165.353504,36.9721125 C160.000603,36.9721125 157.909267,34.3765997 157.909267,29.150507 Z" id="Fill-20" fill="#3C3C3B"></path>
                </g>
            </g>
        </g>
    </g>
</svg>